<?xml version="1.0" encoding="utf-8"?>
<!-- Generator: Adobe Illustrator 22.0.1, SVG Export Plug-In . SVG Version: 6.00 Build 0)  -->
<svg version="1.1" id="Layer_1" xmlns="http://www.w3.org/2000/svg" xmlns:xlink="http://www.w3.org/1999/xlink" x="0px" y="0px"
	 viewBox="0 0 1200 820" style="enable-background:new 0 0 1200 820;" xml:space="preserve">
<style type="text/css">
	.st0{fill:none;stroke:#D1D1D1;stroke-miterlimit:10;}
	.st1{fill:#88BE66;}
	.st2{fill:#999999;}
	.st3{fill:#FFFFFF;}
	.st4{fill:url(#SVGID_1_);}
	.st5{fill:url(#_Path__1_);}
	.st6{fill:url(#SVGID_2_);}
	.st7{fill:url(#SVGID_3_);}
	.st8{fill:url(#SVGID_4_);}
	.st9{fill:url(#SVGID_5_);}
	.st10{fill:url(#SVGID_6_);}
	.st11{fill:url(#SVGID_7_);}
	.st12{fill:url(#SVGID_8_);}
	.st13{fill:url(#SVGID_9_);}
	.st14{fill:url(#SVGID_10_);}
	.st15{fill:url(#SVGID_11_);}
	.st16{fill:url(#SVGID_12_);}
	.st17{fill:url(#SVGID_13_);}
	.st18{fill:#3277BC;}
	.st19{fill:url(#SVGID_14_);}
	.st20{fill:url(#SVGID_15_);}
	.st21{fill:#F3F3F3;}
	.st22{fill:#E2E2E2;}
	.st23{fill:url(#SVGID_16_);fill-opacity:0.2;}
	.st24{opacity:5.000000e-02;enable-background:new    ;}
	.st25{fill:#CD151E;}
	.st26{fill:#FA5153;}
	.st27{fill:#ACACAC;}
	.st28{fill:#EEEEEE;}
	.st29{fill:url(#circle53_2_);}
	.st30{fill:url(#path55_2_);}
	.st31{fill:url(#path57_2_);}
	.st32{fill:url(#path59_2_);}
	.st33{fill:url(#path61_2_);}
	.st34{fill:url(#path63_2_);}
	.st35{fill:url(#path65_2_);}
	.st36{fill:#FF6F00;}
	.st37{fill:#C1272D;}
	.st38{fill:#F7931E;}
	.st39{fill:#3D566B;}
	.st40{fill:#A6A385;}
	.st41{fill:#499D4A;}
	.st42{fill:#58AA50;}
	.st43{fill:#8E714E;}
	.st44{display:none;opacity:0.24;}
	.st45{fill:#326690;}
	.st46{fill-rule:evenodd;clip-rule:evenodd;fill:#326690;}
	.st47{fill-rule:evenodd;clip-rule:evenodd;fill:#FFFFFF;}
</style>
<circle class="st0" cx="600" cy="412" r="130"/>
<circle class="st0" cx="600" cy="412" r="250"/>
<circle class="st0" cx="600" cy="412" r="400"/>
<g>
	<path class="st1" d="M155.2,200.1c-2.2,0-4,1.6-4,3.5v14.9c0,1.9,1.8,3.5,4,3.5s4-1.6,4-3.5v-14.9
		C159.2,201.6,157.4,200.1,155.2,200.1L155.2,200.1z M185.5,185.4l3.5-3.5c0.4-0.4,0.4-1.1,0-1.6c-0.4-0.4-1.1-0.4-1.6,0l-4.3,4.3
		c-1.5-0.4-3.2-0.6-4.8-0.6c-1.7,0-3.3,0.2-4.8,0.6l-4.3-4.3c-0.4-0.4-1.1-0.4-1.6,0c-0.4,0.4-0.4,1.1,0,1.6l3.5,3.5
		c-5.8,2.2-9.8,7-9.8,12.6c0,0.1,34,0,34,0C195.2,192.5,191.2,187.7,185.5,185.4L185.5,185.4z M173.2,194.1c-1.1,0-2-0.9-2-2
		s0.9-2,2-2s2,0.9,2,2C175.2,193.2,174.3,194.1,173.2,194.1L173.2,194.1z M183.2,194.1c-1.1,0-2-0.9-2-2s0.9-2,2-2s2,0.9,2,2
		C185.2,193.2,184.3,194.1,183.2,194.1L183.2,194.1z M201.2,200.1c-2.2,0-4,1.6-4,3.5v14.9c0,1.9,1.8,3.5,4,3.5s4-1.6,4-3.5v-14.9
		C205.2,201.6,203.4,200.1,201.2,200.1L201.2,200.1z M161.3,224c0,3.3,2.7,6,6,6v10.5c0,1.9,1.8,3.5,4,3.5s4-1.6,4-3.5V230h6v10.5
		c0,1.9,1.8,3.5,4,3.5s4-1.6,4-3.5V230l0,0c3.3,0,6-2.7,6-6v-23.9h-34V224L161.3,224z"/>
</g>
<g>
	<g>
		<path d="M387.1,112.9c-5.1,8.8-1.8,22.2,3.8,30.3c2.8,4,5.6,7.7,9.5,7.7c0.1,0,0.1,0,0.2,0c1.8-0.1,3.1-0.6,4.4-1.2
			c1.4-0.6,2.9-1.2,5.2-1.2c2.2,0,3.6,0.6,5,1.2c1.3,0.6,2.7,1.2,4.8,1.1c4.4-0.1,7.1-4,9.4-7.5c2.5-3.6,3.7-7.1,4.1-8.5v-0.1
			c0.1-0.2,0-0.5-0.3-0.6l0,0c-0.8-0.3-7.5-3.3-7.6-11.5c-0.1-6.6,5.1-10.2,6.1-10.8l0,0c0.1-0.1,0.2-0.2,0.2-0.3
			c0-0.1,0-0.3-0.1-0.4c-3.5-5.2-9-6-11.2-6.1c-0.3,0-0.6,0-1,0c-2.6,0-5,1-7,1.7c-1.4,0.5-2.5,1-3.4,1s-2.1-0.5-3.5-1
			c-1.8-0.7-3.9-1.6-6.1-1.6c-0.1,0-0.1,0-0.2,0C394.6,105.3,389.8,108.3,387.1,112.9L387.1,112.9z"/>
		<path d="M420.8,90.9c-3.1,0.1-6.8,2-9,4.6c-1.9,2.2-3.7,5.8-3.2,9.5c0,0.2,0.2,0.4,0.4,0.4c0.2,0,0.4,0,0.6,0c3,0,6.3-1.7,8.5-4.4
			c2.4-2.9,3.5-6.5,3.2-9.8C421.3,91,421.1,90.8,420.8,90.9L420.8,90.9z"/>
	</g>
</g>
<g>
	<path class="st2" d="M1048,524h-68c-3.3,0-6-2.7-6-6v-28c0-3.3,2.7-6,6-6h68c3.3,0,6,2.7,6,6v28C1054,521.3,1051.3,524,1048,524z"
		/>
	<g>
		<path class="st3" d="M994.2,510.6v-11.2h5.2c1.2,0,2.1,0.3,2.8,0.9s1,1.4,1,2.4c0,1.5-0.9,2.7-2.3,3.1l3.5,4.8h-2.7l-3.3-4.5h-1.9
			v4.5L994.2,510.6L994.2,510.6z M996.5,504.2h2.8c1,0,1.7-0.5,1.7-1.4c0-0.8-0.6-1.4-1.7-1.4h-2.8V504.2z"/>
		<path class="st3" d="M1006.1,510.6v-11.2h8.2v2.1h-5.9v2.2h4.8v2h-4.8v2.9h6.1v2.1h-8.4L1006.1,510.6L1006.1,510.6z"/>
		<path class="st3" d="M1015.9,509.7v-2.4c0.5,0.4,1.1,0.8,1.9,1.1c0.8,0.3,1.6,0.4,2.3,0.4c1.2,0,2.2-0.4,2.2-1.3
			c0-0.4-0.2-0.8-0.6-0.9c-0.2-0.1-0.3-0.2-0.6-0.3l-0.4-0.1l-0.9-0.3l-0.8-0.3c-0.2,0-0.4-0.1-0.8-0.3c-0.3-0.1-0.6-0.2-0.7-0.3
			c-0.3-0.2-0.8-0.6-1.1-1c-0.2-0.4-0.4-0.9-0.4-1.6c0-1,0.4-1.8,1.1-2.3c0.8-0.6,1.8-0.9,3.1-0.9s2.5,0.3,3.7,0.9v2.2
			c-1.1-0.7-2.4-1.1-3.6-1.1c-1.3,0-1.9,0.4-1.9,1.1c0,0.4,0.2,0.6,0.6,0.8c0.2,0.1,0.6,0.3,0.9,0.3s0.9,0.2,1.2,0.4
			c1.1,0.3,1.7,0.6,2.4,1.2c0.8,0.5,1.1,1.3,1.1,2.3c0,1.1-0.4,1.9-1.3,2.5c-0.8,0.6-1.9,0.9-3.2,0.9
			C1018.5,510.9,1017.1,510.5,1015.9,509.7z"/>
		<path class="st3" d="M1025.6,499.4h9.4v2.1h-3.6v9.1h-2.3v-9.1h-3.5V499.4z"/>
	</g>
</g>
<g>
	<path class="st2" d="M818,644h-68c-3.3,0-6-2.7-6-6v-28c0-3.3,2.7-6,6-6h68c3.3,0,6,2.7,6,6v28C824,641.3,821.3,644,818,644z"/>
	<g>
		<path class="st3" d="M761.7,629.7v-2.4c0.5,0.4,1.1,0.8,1.9,1.1c0.8,0.3,1.6,0.4,2.3,0.4c1.2,0,2.2-0.4,2.2-1.3
			c0-0.4-0.2-0.8-0.6-0.9c-0.2-0.1-0.3-0.2-0.6-0.3l-0.4-0.1l-0.9-0.3l-0.8-0.3c-0.2,0-0.4-0.1-0.8-0.3c-0.3-0.1-0.6-0.2-0.7-0.3
			c-0.3-0.2-0.8-0.6-1.1-1c-0.2-0.4-0.4-0.9-0.4-1.6c0-1,0.4-1.8,1.1-2.3c0.8-0.6,1.8-0.9,3.1-0.9s2.5,0.3,3.7,0.9v2.2
			c-1.1-0.7-2.4-1.1-3.6-1.1c-1.3,0-1.9,0.4-1.9,1.1c0,0.4,0.2,0.6,0.6,0.8c0.2,0.1,0.6,0.3,0.9,0.3c0.3,0.1,0.9,0.2,1.2,0.4
			c1.1,0.3,1.7,0.6,2.4,1.2s1.1,1.3,1.1,2.3c0,1.1-0.4,1.9-1.3,2.5c-0.8,0.6-1.9,0.9-3.2,0.9C764.3,630.9,762.9,630.5,761.7,629.7z"
			/>
		<path class="st3" d="M773.6,620.9c1.1-1.1,2.5-1.7,4.2-1.7s3,0.6,4.1,1.7c1.1,1.1,1.7,2.5,1.7,4.1s-0.6,3-1.7,4.1
			s-2.5,1.7-4.1,1.7c-1.7,0-3.1-0.6-4.2-1.7s-1.6-2.5-1.6-4.1S772.5,622,773.6,620.9z M777.8,628.7c1,0,1.8-0.4,2.5-1
			c0.7-0.7,1-1.6,1-2.6c0-1.1-0.3-1.9-1-2.6s-1.5-1-2.5-1s-1.8,0.4-2.5,1s-1,1.6-1,2.6c0,1.1,0.3,1.9,1,2.6
			C775.9,628.4,776.8,628.7,777.8,628.7z"/>
		<path class="st3" d="M784,630.6l4.8-11.3h2.2l4.8,11.3h-2.4l-1.1-2.6h-4.7l-1.1,2.6H784z M788.3,626.1h3.3l-1.6-3.9L788.3,626.1z"
			/>
		<path class="st3" d="M797.5,630.6v-11.2h4.9c1.2,0,2.2,0.3,2.8,0.9c0.7,0.6,1.1,1.4,1.1,2.4s-0.4,1.8-1.1,2.4
			c-0.7,0.6-1.6,0.9-2.8,0.9h-2.6v4.4h-2.3L797.5,630.6L797.5,630.6z M799.8,624.2h2.4c1.1,0,1.8-0.5,1.8-1.4s-0.7-1.4-1.8-1.4h-2.4
			V624.2z"/>
	</g>
</g>
<g>
	
		<radialGradient id="SVGID_1_" cx="-8623.96" cy="4381.1582" r="25.5382" fx="-8625.5889" fy="4381.1582" gradientTransform="matrix(0.762 3.400000e-02 -5.000000e-02 1.12 7667.6392 -4530.6055)" gradientUnits="userSpaceOnUse">
		<stop  offset="4.500000e-02" style="stop-color:#FFEE35"/>
		<stop  offset="0.12" style="stop-color:#FFE535"/>
		<stop  offset="0.254" style="stop-color:#FFCC35"/>
		<stop  offset="0.429" style="stop-color:#FFA535"/>
		<stop  offset="0.769" style="stop-color:#FF5459"/>
		<stop  offset="0.872" style="stop-color:#E04C76"/>
		<stop  offset="0.953" style="stop-color:#CC4788"/>
		<stop  offset="1" style="stop-color:#C44590"/>
	</radialGradient>
	<path class="st4" d="M869.3,74.3c-1.4,1.6-2,5.1-0.6,8.7s3.5,2.8,4.8,6.5c1.7,4.8,0.9,11.4,0.9,11.4s2.1,6,3.5-0.4
		C881.2,88.5,869.3,77.3,869.3,74.3z"/>
	
		<radialGradient id="_Path__1_" cx="-10399.4043" cy="4356.5259" r="44.8163" gradientTransform="matrix(1.225 0 0 1.225 13602.5137 -5256.6724)" gradientUnits="userSpaceOnUse">
		<stop  offset="0" style="stop-color:#2ECFDA"/>
		<stop  offset="0.22" style="stop-color:#359CFF"/>
		<stop  offset="0.261" style="stop-color:#3495F9"/>
		<stop  offset="0.33" style="stop-color:#307DE8"/>
		<stop  offset="0.333" style="stop-color:#307CE7"/>
		<stop  offset="0.438" style="stop-color:#4351AD"/>
		<stop  offset="0.522" style="stop-color:#4E3384"/>
		<stop  offset="0.566" style="stop-color:#532875"/>
	</radialGradient>
	<path id="_Path_" class="st5" d="M852.8,124.3c13.9,0,25.1-11.3,25.1-25.3s-11.3-25.3-25.1-25.3S827.7,85,827.7,99
		C827.6,113,838.9,124.3,852.8,124.3z"/>
	
		<linearGradient id="SVGID_2_" gradientUnits="userSpaceOnUse" x1="856.4595" y1="15266.3877" x2="845.6161" y2="15230.918" gradientTransform="matrix(1 0 0 1 0 -15156)">
		<stop  offset="0" style="stop-color:#0E1A43;stop-opacity:0.4"/>
		<stop  offset="0.485" style="stop-color:#152862;stop-opacity:0.173"/>
		<stop  offset="1" style="stop-color:#193379;stop-opacity:0"/>
	</linearGradient>
	<path class="st6" d="M871.6,114.7c-0.5,0.4-1.1,0.7-1.7,1c0.8-1.2,1.5-2.3,2.2-3.6c0.5-0.6,1-1.2,1.4-1.8c0.2-0.3,0.4-0.7,0.6-1.1
		c1.4-2.5,3-6.7,3-10.9l0,0c0-0.1,0-0.2,0-0.3c0-1.1-0.1-2.1-0.3-3.2c0,0.1,0,0.2,0,0.2c0-0.1,0-0.1,0-0.2c0,0.1,0,0.2,0.1,0.3
		c0.3,2.4,0.1,4.8-0.9,6.6c0,0,0,0,0,0.1c0.5-2.7,0.7-5.6,0.1-8.6c0,0-0.2-1.4-2-5.8c-1-2.5-2.8-4.6-4.4-6.1
		c-1.4-1.7-2.7-2.9-3.4-3.6c-1.5-1.5-2.1-2.7-2.3-3.4c-0.2-0.1-3-2.8-3.2-2.9c-1.2,1.9-5.1,7.8-3.2,13.3c0.8,2.5,2.9,5.1,5.1,6.6
		c0.1,0.1,1.3,1.4,1.9,4.4c0.6,3,0.3,5.4-0.9,8.9c-1.4,3.1-5.1,6.1-8.5,6.5c-7.3,0.7-10-3.7-10-3.7c2.6,1,5.5,0.8,7.3-0.3
		c1.8-1.1,2.9-1.9,3.7-1.6c0.9,0.3,1.5-0.6,0.9-1.6c-1-1.5-2.7-2.3-4.5-2s-3.4,1.7-5.7,0.3c-0.2-0.1-0.3-0.2-0.4-0.3
		c-0.2-0.1,0.5,0.2,0.3,0c-0.5-0.2-1.3-0.8-1.5-1c0,0,0.4,0.1,0.3,0.1c-2.2-1.8-1.9-3-1.8-3.8c0.1-0.6,0.5-1.4,1.1-1.7
		c0.3,0.2,0.5,0.3,0.5,0.3s-0.1-0.3-0.2-0.4h0.1c0.3,0.1,0.8,0.5,1.2,0.7c0.4,0.3,0.5,0.5,0.5,0.5s0.1-0.1,0-0.3
		c0-0.1-0.1-0.4-0.5-0.7l0,0c0.2,0.1,0.5,0.3,0.7,0.5c0.1-0.4,0.3-0.8,0.3-1.6c0-0.5,0-0.7-0.1-0.9c-0.1-0.2,0-0.2,0.2-0.1
		c0-0.1-0.1-0.3-0.1-0.4l0,0c0.2-0.6,3.9-2.3,4.1-2.5c0.4-0.3,0.8-0.7,1.1-1.2c0.2-0.3,0.4-0.8,0.4-1.5c0-0.5-0.2-0.8-3.9-1.2
		c-1-0.1-1.6-0.8-2-1.5c-0.1-0.1-0.1-0.3-0.2-0.4c-0.1-0.2-0.1-0.3-0.1-0.5c0.6-1.7,1.6-3.2,3.1-4.3c0.1-0.1-0.3,0-0.2-0.1
		s0.7-0.3,0.8-0.4s-0.6-0.4-1.3-0.3s-0.8,0.2-1.2,0.3c0.2-0.2,0.6-0.3,0.5-0.3c-0.7,0.1-1.7,0.5-2.4,1c0-0.1,0-0.2,0-0.2
		c-0.4,0.2-1.3,0.8-1.5,1.3c0-0.1,0-0.2,0-0.3c-0.3,0.2-0.5,0.5-0.7,0.8l0,0c-2.1-0.9-4-0.9-5.6-0.5c-0.3-0.3-0.5-0.1-1.3-1.8
		c-0.1-0.1,0,0.1,0,0c-0.1-0.3,0.1,0.4,0,0c-1.3,1-3.1,2.2-3.9,3.1c0,0,1-0.3,0,0c-0.3,0.1-0.3,0.3-0.4,2.1c0,0.1,0,0.3,0,0.4
		c-0.7,0.8-1.1,1.6-1.3,1.9c-0.9,1.5-1.8,3.8-2.7,7.5c0.4-1,0.9-1.9,1.5-2.9c-0.8,1.9-1.5,5-1.7,9.7c0.2-1,0.4-1.9,0.7-2.9
		c-0.2,3.9,0.5,7.8,2,11.4c0.5,1.3,1.4,3.3,2.9,5.4c4.7,4.9,11.3,8,18.6,8C860.1,123.3,866.9,119.9,871.6,114.7z"/>
	
		<radialGradient id="SVGID_3_" cx="-10255.043" cy="4030.3625" r="15.1168" gradientTransform="matrix(1.219 0.123 -0.123 1.219 13878.543 -3546.5159)" gradientUnits="userSpaceOnUse">
		<stop  offset="3.000000e-03" style="stop-color:#FFEE35"/>
		<stop  offset="0.497" style="stop-color:#FF5459"/>
		<stop  offset="1" style="stop-color:#C44590"/>
	</radialGradient>
	<path class="st7" d="M866,118.2c9.2-1.1,13.3-10.6,8.1-10.8C869.3,107.3,861.6,118.7,866,118.2z"/>
	
		<radialGradient id="SVGID_4_" cx="-10256.4111" cy="4015.8674" r="25.2438" gradientTransform="matrix(1.219 0.123 -0.123 1.219 13878.543 -3546.5159)" gradientUnits="userSpaceOnUse">
		<stop  offset="3.000000e-03" style="stop-color:#FFED35"/>
		<stop  offset="0.157" style="stop-color:#FFC040"/>
		<stop  offset="0.316" style="stop-color:#FF954B"/>
		<stop  offset="0.472" style="stop-color:#FF7353"/>
		<stop  offset="0.621" style="stop-color:#FF585A"/>
		<stop  offset="0.762" style="stop-color:#FF445E"/>
		<stop  offset="0.892" style="stop-color:#FF3961"/>
		<stop  offset="1" style="stop-color:#FF3562"/>
	</radialGradient>
	<path class="st8" d="M874.7,105.5c6.3-3.7,4.7-11.7,4.7-11.7s-2.4,2.8-4.1,7.4C873.6,105.7,870.9,107.8,874.7,105.5z"/>
	
		<radialGradient id="SVGID_5_" cx="-10252.8408" cy="4039.2678" r="23.164" gradientTransform="matrix(1.219 0.123 -0.123 1.219 13878.543 -3546.5159)" gradientUnits="userSpaceOnUse">
		<stop  offset="3.000000e-03" style="stop-color:#FF5459"/>
		<stop  offset="0.497" style="stop-color:#C44590"/>
		<stop  offset="0.986" style="stop-color:#621A15"/>
	</radialGradient>
	<path class="st9" d="M854.5,122.9c8.8,2.8,16.5-4.1,11.8-6.5C862,114.4,850.3,121.6,854.5,122.9z"/>
	
		<radialGradient id="SVGID_6_" cx="866.1923" cy="15247.4512" r="44.3038" fx="867.7769" fy="15246.668" gradientTransform="matrix(1 0 0 1 0 -15156)" gradientUnits="userSpaceOnUse">
		<stop  offset="0.156" style="stop-color:#FFEE35"/>
		<stop  offset="0.231" style="stop-color:#FFE535"/>
		<stop  offset="0.365" style="stop-color:#FFCC35"/>
		<stop  offset="0.541" style="stop-color:#FFA535"/>
		<stop  offset="0.763" style="stop-color:#FF5459"/>
		<stop  offset="0.796" style="stop-color:#F9505C"/>
		<stop  offset="0.841" style="stop-color:#E94767"/>
		<stop  offset="0.893" style="stop-color:#CF3679"/>
		<stop  offset="0.935" style="stop-color:#B5268A"/>
	</radialGradient>
	<path class="st10" d="M875.3,108.9c0.2-0.3,0.5-1.3,0.8-1.7c1.6-2.5,1.6-4.5,1.6-4.6c0.9-4.7,0.9-6.6,0.3-10.2
		c-0.5-2.9-2.5-7-4.3-8.9c-1.8-2-0.5-1.4-2.3-2.9c-1.5-1.7-3-3.4-3.9-4.1c-5.9-4.9-5.8-6-5.7-6.2c0,0,0,0.1-0.1,0.1
		c-0.1-0.3-0.1-0.5-0.1-0.5s-3.2,3.2-3.9,8.6c-0.4,3.5,0.9,7.2,2.8,9.5c1,1.2,2.1,2.3,3.3,3.3l0,0c1.4,2.1,2.2,4.6,2.2,7.4
		c0,6.9-5.6,12.4-12.4,12.4c-0.9,0-1.9-0.1-2.8-0.3c-3.2-0.6-5.1-2.3-6-3.4c-0.5-0.6-0.8-1.1-0.8-1.1c2.9,1,6.1,0.8,8.1-0.3
		c2-1.1,3.2-1.9,4.1-1.6c1,0.3,1.7-0.6,1-1.6s-2.4-2.3-5-1.9c-2,0.3-3.8,1.7-6.4,0.3c-0.2-0.1-0.3-0.2-0.5-0.3
		c-0.2-0.1,0.6,0.2,0.4,0c-0.5-0.2-1.4-0.8-1.6-1l0.4,0.1c-2.4-1.8-2.1-3-2-3.7c0.1-0.6,0.5-1.4,1.2-1.7c0.4,0.2,0.6,0.3,0.6,0.3
		s-0.2-0.3-0.2-0.4h0.1c0.3,0.1,0.9,0.5,1.3,0.7c0.4,0.3,0.6,0.5,0.6,0.5s0.1-0.1,0-0.3c0-0.1-0.2-0.4-0.6-0.7l0,0
		c0.3,0.1,0.5,0.3,0.7,0.5c0.1-0.4,0.3-0.8,0.3-1.6c0-0.5,0-0.7-0.1-0.9c-0.1-0.2,0.1-0.2,0.2-0.1c0-0.1-0.1-0.3-0.1-0.4l0,0
		c0.2-0.6,4.3-2.3,4.6-2.5c0.5-0.3,0.9-0.7,1.2-1.2c0.2-0.3,0.4-0.8,0.4-1.5c0-0.3-0.1-0.6-1.2-0.8c-0.6-0.1-1.7-0.3-3.2-0.4
		c-1.1-0.1-1.8-0.8-2.2-1.5c-0.1-0.1-0.1-0.3-0.2-0.4c-0.1-0.2-0.1-0.3-0.2-0.5c0.7-1.8,1.9-3.3,3.5-4.3c0.1-0.1-0.4,0-0.3-0.1
		c0.1-0.1,0.8-0.3,0.9-0.4c0.2-0.1-0.7-0.4-1.4-0.3c-0.8,0.1-0.9,0.2-1.3,0.3c0.2-0.1,0.7-0.3,0.6-0.3c-0.8,0.1-1.8,0.5-2.7,1
		c0-0.1,0-0.2,0.1-0.2c-0.4,0.2-1.4,0.8-1.7,1.3c0-0.1,0-0.2,0-0.3c-0.3,0.2-0.6,0.5-0.8,0.8l0,0c-2.3-0.8-4.4-0.9-6.1-0.5
		c-0.4-0.3-1-0.9-1.9-2.6c-0.1-0.1-0.1,0.2-0.1,0.1c-0.3-0.8-0.5-2.1-0.5-2.9c0,0-0.7,0.3-1.3,1.6c-0.1,0.2-0.2,0.4-0.2,0.5l0.1-0.4
		c-0.1,0.2-0.4,0.4-0.5,0.7c-0.1,0.2-0.2,0.4-0.3,0.6l0,0c0-0.1,0-0.3,0-0.3c-0.3,0.5-0.5,1.1-0.7,1.7c-0.3,1-0.7,2.4-0.7,4.2
		c0,0.1,0,0.3,0,0.4c-0.7,0.8-1.2,1.6-1.4,1.9c-1,1.5-2,3.8-3,7.4c0.5-1,1-1.9,1.6-2.8c-0.8,1.9-1.7,4.9-1.8,9.6
		c0.2-1,0.5-1.9,0.8-2.8c-0.1,3.1,0.2,7,2.2,11.3c1.2,2.6,3.8,7.7,10.4,11.8l0,0c0,0,2.2,1.7,6.1,2.9c0.3,0.1,0.6,0.2,0.9,0.3
		c-0.1,0-0.2-0.1-0.3-0.1c2.6,0.8,5.2,1.2,7.9,1.2c9.9,0,12.8-4,12.8-4l0,0c0.1-0.1,0.3-0.3,0.4-0.4c-1.6,1.5-5.1,1.6-6.5,1.5
		c2.3-0.7,3.8-1.2,6.7-2.4c0.3-0.1,0.7-0.3,1-0.4c0,0,0.1,0,0.1-0.1c0.1,0,0.1-0.1,0.2-0.1c1.4-0.7,2.8-1.5,4-2.5
		c2.9-2.3,3.6-4.6,3.9-6.1c0,0.1-0.2,0.5-0.3,0.7c-0.8,1.6-2.4,2.6-4.2,3.5c0.9-1.1,1.7-2.3,2.4-3.5
		C874.7,110.4,874.9,109.5,875.3,108.9z"/>
	
		<radialGradient id="SVGID_7_" cx="862.8589" cy="15225.2061" r="52.3149" gradientTransform="matrix(1 0 0 1 0 -15156)" gradientUnits="userSpaceOnUse">
		<stop  offset="0.279" style="stop-color:#FFEE35"/>
		<stop  offset="0.402" style="stop-color:#FFE435"/>
		<stop  offset="0.63" style="stop-color:#FFC835"/>
		<stop  offset="0.856" style="stop-color:#FFA835"/>
		<stop  offset="0.933" style="stop-color:#FF8643"/>
		<stop  offset="0.994" style="stop-color:#FF704C"/>
	</radialGradient>
	<path class="st11" d="M871.8,114.5c1.2-1.3,2.3-2.8,3.1-4.5c2.1-4.4,5.3-11.7,2.8-19.3c-2-6-4.8-9.3-8.3-12.6
		c-5.7-5.2-7.3-7.6-7.3-9c0,0-6.6,7.3-3.7,15c2.9,7.6,8.7,7.4,12.6,15.3c4.5,9.4-3.7,19.6-10.5,22.5c0.4-0.1,15.1-3.4,15.9-11.8
		C876.3,110.3,876,112.6,871.8,114.5z"/>
	
		<linearGradient id="SVGID_8_" gradientUnits="userSpaceOnUse" x1="-10293.7139" y1="4021.4536" x2="-10277.6074" y2="4017.3472" gradientTransform="matrix(1.219 0.123 -0.123 1.219 13878.543 -3546.5159)">
		<stop  offset="0" style="stop-color:#C44590;stop-opacity:0.5"/>
		<stop  offset="0.474" style="stop-color:#FF5459;stop-opacity:0.5"/>
		<stop  offset="0.486" style="stop-color:#FF5858;stop-opacity:0.513"/>
		<stop  offset="0.675" style="stop-color:#FF954A;stop-opacity:0.72"/>
		<stop  offset="0.829" style="stop-color:#FFC23F;stop-opacity:0.871"/>
		<stop  offset="0.942" style="stop-color:#FFDE39;stop-opacity:0.964"/>
		<stop  offset="1" style="stop-color:#FFE936"/>
	</linearGradient>
	<path class="st12" d="M852.7,87.2c0-0.5-0.2-0.8-4.3-1.2c-1.7-0.2-2.3-1.7-2.5-2.4c-0.6,1.6-0.8,3.2-0.7,5.2c0.1,1.3,1,2.7,1.4,3.5
		c0,0,0.1-0.1,0.1-0.2c0.8-0.8,4.1-2.1,4.4-2.2C851.4,89.7,852.7,88.8,852.7,87.2z"/>
	
		<linearGradient id="SVGID_9_" gradientUnits="userSpaceOnUse" x1="2312.915" y1="12119.4209" x2="2309.8242" y2="12111.499" gradientTransform="matrix(0.995 0.1 -0.1 0.995 -255.5859 -12206.2637)">
		<stop  offset="0" style="stop-color:#892D5D;stop-opacity:0.6"/>
		<stop  offset="1" style="stop-color:#C44590;stop-opacity:0"/>
	</linearGradient>
	<path class="st13" d="M834.7,78C834.6,77.9,834.6,78.2,834.7,78c-0.4-0.7-0.6-2-0.6-2.8c0,0-0.7,0.3-1.3,1.6
		c-0.1,0.2-0.2,0.4-0.2,0.5l0.1-0.4c-0.1,0.2-0.4,0.4-0.5,0.7c-0.1,0.2-0.2,0.4-0.3,0.7c0,0.1,0-0.4,0-0.3c-1.3,2.6-1.6,6.5-1.5,6.4
		c2.9-3.1,6.1-3.8,6.1-3.8C836.2,80.3,835.4,79.5,834.7,78L834.7,78z"/>
	
		<linearGradient id="SVGID_10_" gradientUnits="userSpaceOnUse" x1="1997.7417" y1="13731.249" x2="2003.0721" y2="13737.3037" gradientTransform="matrix(0.995 0.1 -0.1 0.995 223.549 -13766.6758)">
		<stop  offset="5.000000e-03" style="stop-color:#892D5D;stop-opacity:0.5"/>
		<stop  offset="0.484" style="stop-color:#FF5459;stop-opacity:0.5"/>
		<stop  offset="1" style="stop-color:#FF5459;stop-opacity:0"/>
	</linearGradient>
	<path class="st14" d="M845.5,109.9c-3.9-1.7-8.4-4.1-8.3-9.5c0.2-7.1,6.6-5.7,6.6-5.7c-0.2,0.1-0.9,0.5-1.1,1
		c-0.2,0.6-0.7,2,0.7,3.4c2.1,2.3-4.3,5.4,5.6,11.3C849.2,110.6,846.7,110.4,845.5,109.9L845.5,109.9z"/>
	
		<linearGradient id="SVGID_11_" gradientUnits="userSpaceOnUse" x1="2007.7194" y1="13741.7773" x2="2007.7231" y2="13737.541" gradientTransform="matrix(0.995 0.1 -0.1 0.995 223.549 -13766.6758)">
		<stop  offset="0" style="stop-color:#C44590"/>
		<stop  offset="8.299999e-02" style="stop-color:#C44590;stop-opacity:0.81"/>
		<stop  offset="0.206" style="stop-color:#C44590;stop-opacity:0.565"/>
		<stop  offset="0.328" style="stop-color:#C44590;stop-opacity:0.362"/>
		<stop  offset="0.447" style="stop-color:#C44590;stop-opacity:0.204"/>
		<stop  offset="0.562" style="stop-color:#C44590;stop-opacity:9.100000e-02"/>
		<stop  offset="0.673" style="stop-color:#C44590;stop-opacity:2.300000e-02"/>
		<stop  offset="0.773" style="stop-color:#C44590;stop-opacity:0"/>
	</linearGradient>
	<path class="st15" d="M844.1,106.4c2.8,1,6.1,0.8,8-0.3c1.3-0.7,3-1.9,4-1.6c-0.9-0.4-1.6-0.5-2.4-0.6c-0.1,0-0.3,0-0.5,0
		c-0.3,0-0.6,0-0.9,0c-0.5,0-1.1,0.4-1.6,0.3l0.5-0.2c-0.3,0.1-0.6,0.1-0.9,0.1c-0.2,0-0.4,0-0.6,0.1c-5.8,0.5-10.8-3.2-10.8-3.2
		C838.7,102.5,841,105.3,844.1,106.4L844.1,106.4z"/>
	
		<linearGradient id="SVGID_12_" gradientUnits="userSpaceOnUse" x1="860.8512" y1="15227.1689" x2="878.1639" y2="15265.8838" gradientTransform="matrix(1 0 0 1 0 -15156)">
		<stop  offset="0" style="stop-color:#FFF474"/>
		<stop  offset="0.268" style="stop-color:#FFF271"/>
		<stop  offset="0.452" style="stop-color:#FFEB6A"/>
		<stop  offset="0.612" style="stop-color:#FFE05E"/>
		<stop  offset="0.757" style="stop-color:#FFD04D"/>
		<stop  offset="0.892" style="stop-color:#FFBC36"/>
		<stop  offset="0.902" style="stop-color:#FFBB35"/>
		<stop  offset="0.949" style="stop-color:#FFB435"/>
		<stop  offset="1" style="stop-color:#FFA835"/>
	</linearGradient>
	<path class="st16" d="M871.8,114.5c5.9-5.8,8.9-12.8,7.6-20.7c0,0,0.5,4-1.4,8.2c0.9-4,1-9.1-1.4-14.3c-3.3-6.9-8.6-10.6-10.7-12.1
		c-3.1-2.3-4.4-4.7-4.4-5.1c-0.9,1.9-3.7,8.4-0.3,14c3.2,5.2,8.3,6.8,11.8,11.6C879.5,104.9,871.8,114.5,871.8,114.5z"/>
	
		<linearGradient id="SVGID_13_" gradientUnits="userSpaceOnUse" x1="864.2053" y1="15249.4268" x2="856.0043" y2="15271.4463" gradientTransform="matrix(1 0 0 1 0 -15156)">
		<stop  offset="0" style="stop-color:#FFA535"/>
		<stop  offset="4.000000e-02" style="stop-color:#FFA535;stop-opacity:0.858"/>
		<stop  offset="8.400000e-02" style="stop-color:#FFA535;stop-opacity:0.729"/>
		<stop  offset="0.13" style="stop-color:#FFA535;stop-opacity:0.628"/>
		<stop  offset="0.178" style="stop-color:#FFA535;stop-opacity:0.557"/>
		<stop  offset="0.227" style="stop-color:#FFA535;stop-opacity:0.514"/>
		<stop  offset="0.282" style="stop-color:#FFA535;stop-opacity:0.5"/>
		<stop  offset="0.389" style="stop-color:#FFA535;stop-opacity:0.478"/>
		<stop  offset="0.524" style="stop-color:#FFA535;stop-opacity:0.416"/>
		<stop  offset="0.676" style="stop-color:#FFA535;stop-opacity:0.314"/>
		<stop  offset="0.838" style="stop-color:#FFA535;stop-opacity:0.172"/>
		<stop  offset="1" style="stop-color:#FFA535;stop-opacity:0"/>
	</linearGradient>
	<path class="st17" d="M870.9,99.5c-2.1-4.3-4.6-6.1-7.1-8.1c0.3,0.4,0.4,0.5,0.5,0.8c2.1,2.3,5.3,7.9,3,14.8
		c-4.3,13.2-21.6,7-23.4,5.2c0.7,7.6,13.5,11.3,21.8,6.3C870.5,114,874.3,106.4,870.9,99.5z"/>
</g>
<path class="st18" d="M1038.4,123.3h17c0-6-2.6-10.1-9.8-10.1c-8.5,0-17.1,5.5-21.2,12.4c1.3-12,9.8-21.6,22.7-21.6
	c11.1,0,21.5,8.5,21.5,22.5v5.3h-30.2c0,7.3,6.3,10.2,13,10.2c8.1,0,13.1-3.6,13.1-3.6v10.2c0,0-5.7,3.4-14.7,3.4
	c-11.7,0-20-8.4-20-18.8c0-8.2,5-14.7,11.8-17.4C1038.4,119.4,1038.4,123.3,1038.4,123.3L1038.4,123.3z"/>
<g transform="translate(4 2)">
	<g>
		
			<linearGradient id="SVGID_14_" gradientUnits="userSpaceOnUse" x1="-16366.8555" y1="5.3757" x2="-16366.8555" y2="5.3532" gradientTransform="matrix(2421.875 0 0 2421.875 39639456 -12717.875)">
			<stop  offset="0.25" style="stop-color:#DBDBDA"/>
			<stop  offset="1" style="stop-color:#FFFFFF"/>
		</linearGradient>
		<circle class="st19" cx="978.6" cy="273.5" r="27"/>
	</g>
	
		<radialGradient id="SVGID_15_" cx="-16366.3154" cy="5.8368" r="1.360817e-02" gradientTransform="matrix(2240.2344 0 0 2240.2344 36665368 -12807.8594)" gradientUnits="userSpaceOnUse">
		<stop  offset="0" style="stop-color:#2ABCE1"/>
		<stop  offset="0.1136" style="stop-color:#2ABBE1"/>
		<stop  offset="1" style="stop-color:#3375F8"/>
	</radialGradient>
	<circle class="st20" cx="978.6" cy="273.5" r="25"/>
	<g transform="translate(9.688 8.719)">
		<path class="st21" d="M969,245.8c-0.2,0-0.3-0.1-0.3-0.3v-4.4c0-0.2,0.1-0.3,0.3-0.3s0.3,0.1,0.3,0.3v4.4
			C969.3,245.7,969.1,245.8,969,245.8L969,245.8z"/>
		<path class="st3" d="M969,245.9c-0.2,0-0.3-0.1-0.3-0.3v-4.4c0-0.2,0.1-0.3,0.3-0.3s0.3,0.1,0.3,0.3v4.4
			C969.3,245.7,969.1,245.9,969,245.9z M969,240.9c-0.1,0-0.3,0.1-0.3,0.3v4.4c0,0.1,0.1,0.3,0.3,0.3c0.1,0,0.3-0.1,0.3-0.3v-4.4
			C969.2,241,969.1,240.9,969,240.9z"/>
		<path class="st21" d="M971.1,243.5c-0.2,0-0.3-0.1-0.3-0.3l0.1-2c0-0.2,0.2-0.3,0.3-0.3s0.3,0.1,0.3,0.3l-0.1,2
			C971.4,243.4,971.2,243.5,971.1,243.5L971.1,243.5z"/>
		<path class="st3" d="M971.1,243.5c-0.2,0-0.3-0.2-0.3-0.3l0.1-2c0-0.2,0.2-0.3,0.4-0.3s0.3,0.2,0.3,0.3l-0.1,2
			C971.4,243.4,971.3,243.5,971.1,243.5z M971.3,241c-0.1,0-0.3,0.1-0.3,0.3l-0.1,2c0,0.1,0.1,0.3,0.3,0.3c0.1,0,0.3-0.1,0.3-0.3
			l0.1-2C971.5,241.1,971.4,241,971.3,241L971.3,241z"/>
		<path class="st21" d="M972.7,246.2c-0.2,0-0.3-0.2-0.3-0.4l0.9-4.3c0-0.2,0.2-0.3,0.4-0.2s0.3,0.2,0.3,0.4l-1,4.3
			C973,246.1,972.8,246.3,972.7,246.2L972.7,246.2z"/>
		<path class="st3" d="M972.7,246.3c-0.2,0-0.3-0.2-0.3-0.4l0.9-4.3c0-0.2,0.2-0.3,0.4-0.3s0.3,0.2,0.3,0.4l-0.9,4.3
			C973,246.2,972.8,246.3,972.7,246.3z M973.6,241.3c-0.1,0-0.3,0.1-0.3,0.2l-0.9,4.3c0,0.1,0.1,0.3,0.2,0.3c0.1,0,0.3-0.1,0.3-0.2
			l0.9-4.3C973.9,241.5,973.8,241.4,973.6,241.3z"/>
		<path class="st21" d="M975.2,244.3c-0.2,0-0.3-0.2-0.2-0.4l0,0l0.5-1.9c0-0.2,0.2-0.3,0.4-0.2c0.2,0,0.3,0.2,0.2,0.4l-0.5,1.9
			C975.5,244.3,975.4,244.4,975.2,244.3L975.2,244.3z"/>
		<path class="st3" d="M975.2,244.4c-0.2,0-0.3-0.2-0.2-0.4l0.5-1.9c0-0.2,0.2-0.3,0.4-0.2c0.2,0,0.3,0.2,0.2,0.4l-0.5,1.9
			C975.5,244.3,975.4,244.4,975.2,244.4L975.2,244.4z M975.9,241.9c-0.1,0-0.3,0-0.4,0.2L975,244c0,0.1,0,0.3,0.2,0.3
			c0.1,0,0.3,0,0.4-0.2l0.5-1.9C976.1,242.1,976,241.9,975.9,241.9L975.9,241.9z"/>
		<path class="st21" d="M976.2,247.3c-0.2-0.1-0.2-0.3-0.2-0.4l1.7-4.1c0.1-0.1,0.3-0.2,0.4-0.1c0.2,0.1,0.2,0.3,0.2,0.4l-1.7,4.1
			C976.6,247.3,976.4,247.4,976.2,247.3L976.2,247.3z"/>
		<path class="st3" d="M976.2,247.3c-0.2-0.1-0.3-0.3-0.2-0.4l1.7-4.1c0.1-0.2,0.3-0.2,0.4-0.2c0.2,0.1,0.3,0.3,0.2,0.4l-1.7,4.1
			C976.6,247.3,976.4,247.4,976.2,247.3z M978.1,242.7c-0.1-0.1-0.3,0-0.4,0.1l-1.7,4.1c-0.1,0.1,0,0.3,0.2,0.4
			c0.1,0.1,0.3,0,0.4-0.1l1.7-4.1C978.3,242.9,978.3,242.8,978.1,242.7L978.1,242.7z"/>
		<path class="st21" d="M979.1,246c-0.1-0.1-0.2-0.3-0.1-0.4l0.9-1.8c0.1-0.1,0.3-0.2,0.4-0.1c0.1,0.1,0.2,0.3,0.1,0.4l-0.9,1.8
			C979.4,246,979.2,246,979.1,246L979.1,246z"/>
		<path class="st3" d="M979.1,246c-0.2-0.1-0.2-0.3-0.1-0.4l0.9-1.8c0.1-0.2,0.3-0.2,0.4-0.1c0.2,0.1,0.2,0.3,0.1,0.4l-0.9,1.8
			C979.4,246,979.2,246.1,979.1,246L979.1,246z M980.2,243.7c-0.1-0.1-0.3,0-0.4,0.1l-0.9,1.8c-0.1,0.1,0,0.3,0.1,0.4
			c0.1,0.1,0.3,0,0.4-0.1l0.9-1.8C980.4,243.9,980.4,243.8,980.2,243.7z"/>
		<path class="st21" d="M979.5,249.1c-0.1-0.1-0.2-0.3-0.1-0.4l2.4-3.6c0.1-0.1,0.3-0.2,0.4-0.1c0.1,0.1,0.2,0.3,0.1,0.4l-2.4,3.6
			C979.8,249.1,979.6,249.2,979.5,249.1z"/>
		<path class="st3" d="M979.5,249.1c-0.1-0.1-0.2-0.3-0.1-0.5l2.4-3.6c0.1-0.1,0.3-0.2,0.5-0.1c0.1,0.1,0.2,0.3,0.1,0.5L980,249
			C979.8,249.2,979.6,249.2,979.5,249.1z M982.3,244.9c-0.1-0.1-0.3-0.1-0.4,0.1l-2.4,3.6c-0.1,0.1,0,0.3,0.1,0.4
			c0.1,0.1,0.3,0.1,0.4-0.1l2.4-3.6C982.4,245.2,982.4,245,982.3,244.9L982.3,244.9z"/>
		<path class="st21" d="M982.6,248.3c-0.1-0.1-0.2-0.3-0.1-0.4l1.2-1.5c0.1-0.1,0.3-0.1,0.4,0c0.1,0.1,0.2,0.3,0.1,0.4l-1.2,1.5
			C982.9,248.4,982.7,248.4,982.6,248.3L982.6,248.3z"/>
		<path class="st3" d="M982.5,248.3c-0.1-0.1-0.2-0.3-0.1-0.5l1.2-1.5c0.1-0.1,0.3-0.2,0.5,0c0.1,0.1,0.2,0.3,0.1,0.5l-1.2,1.5
			C982.9,248.4,982.7,248.4,982.5,248.3z M984.1,246.3c-0.1-0.1-0.3-0.1-0.4,0l-1.2,1.5c-0.1,0.1-0.1,0.3,0.1,0.4
			c0.1,0.1,0.3,0.1,0.4,0l1.2-1.5C984.3,246.6,984.3,246.4,984.1,246.3L984.1,246.3z"/>
		<path class="st21" d="M982.4,251.5c-0.1-0.1-0.1-0.3,0-0.4l3.1-3.1c0.1-0.1,0.3-0.1,0.4,0c0.1,0.1,0.1,0.3,0,0.4l-3.1,3.1
			C982.7,251.6,982.5,251.6,982.4,251.5z"/>
		<path class="st3" d="M982.3,251.5c-0.1-0.1-0.1-0.3,0-0.5l3.1-3.1c0.1-0.1,0.3-0.1,0.5,0c0.1,0.1,0.1,0.3,0,0.5l-3.1,3.1
			C982.7,251.6,982.5,251.6,982.3,251.5L982.3,251.5z M985.9,247.9c-0.1-0.1-0.3-0.1-0.4,0l-3.1,3.1c-0.1,0.1-0.1,0.3,0,0.4
			c0.1,0.1,0.3,0.1,0.4,0l3.1-3.1C986,248.2,986,248.1,985.9,247.9L985.9,247.9z"/>
		<path class="st21" d="M985.5,251.3c-0.1-0.1-0.1-0.3,0-0.4l1.5-1.3c0.1-0.1,0.3-0.1,0.4,0c0.1,0.1,0.1,0.3,0,0.4l-1.5,1.3
			C985.8,251.4,985.6,251.4,985.5,251.3z"/>
		<path class="st3" d="M985.5,251.3c-0.1-0.1-0.1-0.4,0-0.5l1.5-1.3c0.1-0.1,0.3-0.1,0.5,0c0.1,0.1,0.1,0.4,0,0.5l-1.5,1.3
			C985.8,251.5,985.6,251.5,985.5,251.3L985.5,251.3z M987.4,249.6c-0.1-0.1-0.3-0.1-0.4,0l-1.5,1.3c-0.1,0.1-0.1,0.3,0,0.4
			c0.1,0.1,0.3,0.1,0.4,0l1.5-1.3C987.5,249.9,987.5,249.8,987.4,249.6z"/>
		<path class="st21" d="M984.7,254.3c-0.1-0.1-0.1-0.3,0.1-0.4l3.7-2.4c0.1-0.1,0.3,0,0.4,0.1c0.1,0.1,0.1,0.3-0.1,0.4l-3.7,2.4
			C985,254.5,984.8,254.5,984.7,254.3z"/>
		<path class="st3" d="M984.7,254.3c-0.1-0.1-0.1-0.4,0.1-0.5l3.7-2.4c0.1-0.1,0.4-0.1,0.5,0.1c0.1,0.1,0.1,0.4-0.1,0.5l-3.7,2.4
			C985,254.5,984.8,254.5,984.7,254.3L984.7,254.3z M988.8,251.6c-0.1-0.1-0.3-0.2-0.4-0.1l-3.7,2.4c-0.1,0.1-0.2,0.3-0.1,0.4
			c0.1,0.1,0.3,0.2,0.4,0.1l3.7-2.4C988.9,251.9,988.9,251.7,988.8,251.6L988.8,251.6z"/>
		<path class="st21" d="M987.8,254.8c-0.1-0.1,0-0.3,0.1-0.4l1.7-1c0.1-0.1,0.3,0,0.4,0.1c0.1,0.1,0,0.3-0.1,0.4l-1.7,1
			C988.1,255,987.9,254.9,987.8,254.8L987.8,254.8z"/>
		<path class="st3" d="M987.8,254.8c-0.1-0.2,0-0.4,0.1-0.4l1.7-1c0.1-0.1,0.4,0,0.4,0.1c0.1,0.2,0,0.4-0.1,0.4l-1.7,1
			C988.1,255,987.9,254.9,987.8,254.8L987.8,254.8z M990,253.5c-0.1-0.1-0.3-0.2-0.4-0.1l-1.7,1c-0.1,0.1-0.2,0.3-0.1,0.4
			c0.1,0.1,0.3,0.2,0.4,0.1l1.7-1C990.1,253.8,990.1,253.7,990,253.5z"/>
		<path class="st21" d="M986.4,257.6c-0.1-0.2,0-0.3,0.2-0.4l4.1-1.7c0.1-0.1,0.3,0,0.4,0.2c0.1,0.2,0,0.3-0.2,0.4l-4.1,1.7
			C986.7,257.8,986.5,257.7,986.4,257.6z"/>
		<path class="st3" d="M986.4,257.6c-0.1-0.2,0-0.4,0.2-0.4l4.1-1.7c0.2-0.1,0.4,0,0.4,0.2c0.1,0.2,0,0.4-0.2,0.4l-4.1,1.7
			C986.6,257.9,986.5,257.8,986.4,257.6L986.4,257.6z M991,255.7c-0.1-0.1-0.2-0.2-0.4-0.2l-4.1,1.7c-0.1,0.1-0.2,0.2-0.1,0.4
			c0.1,0.1,0.2,0.2,0.4,0.2l4.1-1.7C991,256,991.1,255.8,991,255.7z"/>
		<path class="st21" d="M989.4,258.6c-0.1-0.2,0-0.3,0.2-0.4l1.9-0.6c0.1-0.1,0.3,0,0.4,0.2c0.1,0.2,0,0.3-0.2,0.4l-1.9,0.6
			C989.6,258.9,989.4,258.8,989.4,258.6L989.4,258.6z"/>
		<path class="st3" d="M989.4,258.7c-0.1-0.2,0-0.4,0.2-0.4l1.9-0.6c0.2-0.1,0.4,0,0.4,0.2c0.1,0.2,0,0.4-0.2,0.4l-1.9,0.6
			C989.6,258.9,989.4,258.8,989.4,258.7z M991.8,257.9c0-0.1-0.2-0.2-0.4-0.2l-1.9,0.6c-0.1,0-0.2,0.2-0.2,0.4
			c0,0.1,0.2,0.2,0.4,0.2l1.9-0.6C991.8,258.1,991.8,258,991.8,257.9L991.8,257.9z"/>
		<path class="st21" d="M987.5,261.1c0-0.2,0.1-0.3,0.2-0.4l4.3-0.8c0.2,0,0.3,0.1,0.4,0.3c0,0.2-0.1,0.3-0.2,0.4l-4.3,0.8
			C987.7,261.4,987.5,261.3,987.5,261.1L987.5,261.1z"/>
		<path class="st3" d="M987.4,261.1c0-0.2,0.1-0.4,0.3-0.4l4.3-0.8c0.2,0,0.3,0.1,0.4,0.3c0,0.2-0.1,0.4-0.3,0.4l-4.3,0.8
			C987.7,261.5,987.5,261.3,987.4,261.1L987.4,261.1z M992.4,260.2c0-0.1-0.2-0.3-0.3-0.2l-4.3,0.8c-0.1,0-0.3,0.2-0.2,0.3
			c0,0.1,0.2,0.3,0.3,0.2l4.3-0.8C992.3,260.5,992.4,260.3,992.4,260.2L992.4,260.2z"/>
		<path class="st21" d="M990.2,262.8c0-0.2,0.1-0.3,0.3-0.3l1.9-0.2c0.2,0,0.3,0.1,0.3,0.3c0,0.2-0.1,0.3-0.3,0.3l-1.9,0.2
			C990.4,263.1,990.2,262.9,990.2,262.8L990.2,262.8z"/>
		<path class="st3" d="M990.2,262.8c0-0.2,0.1-0.4,0.3-0.4l1.9-0.2c0.2,0,0.3,0.1,0.4,0.3c0,0.2-0.1,0.4-0.3,0.4l-1.9,0.2
			C990.4,263.1,990.2,263,990.2,262.8L990.2,262.8z M992.7,262.5c0-0.1-0.2-0.3-0.3-0.3l-1.9,0.2c-0.1,0-0.3,0.2-0.2,0.3
			c0,0.1,0.2,0.3,0.3,0.3l1.9-0.2C992.6,262.8,992.7,262.6,992.7,262.5L992.7,262.5z"/>
		<path class="st21" d="M987.8,264.8c0-0.2,0.1-0.3,0.3-0.3h4.4c0.2,0,0.3,0.1,0.3,0.3s-0.1,0.3-0.3,0.3h-4.4
			C987.9,265.1,987.8,265,987.8,264.8z"/>
		<path class="st3" d="M987.8,264.8c0-0.2,0.1-0.3,0.3-0.3h4.4c0.2,0,0.3,0.1,0.3,0.3s-0.1,0.3-0.3,0.3h-4.4
			C987.9,265.2,987.8,265,987.8,264.8z M992.8,264.8c0-0.1-0.1-0.3-0.3-0.3h-4.4c-0.1,0-0.3,0.1-0.3,0.3c0,0.1,0.1,0.3,0.3,0.3h4.4
			C992.7,265.1,992.8,265,992.8,264.8L992.8,264.8z"/>
		<path class="st21" d="M990.2,266.9c0-0.2,0.1-0.3,0.3-0.3l2,0.1c0.2,0,0.3,0.2,0.3,0.3c0,0.2-0.1,0.3-0.3,0.3l-2-0.1
			C990.3,267.3,990.2,267.1,990.2,266.9L990.2,266.9z"/>
		<path class="st3" d="M990.1,266.9c0-0.2,0.2-0.3,0.3-0.3l2,0.1c0.2,0,0.3,0.2,0.3,0.4c0,0.2-0.2,0.3-0.3,0.3l-2-0.1
			C990.3,267.3,990.1,267.1,990.1,266.9L990.1,266.9z M992.7,267.1c0-0.1-0.1-0.3-0.3-0.3l-2-0.1c-0.1,0-0.3,0.1-0.3,0.3
			c0,0.1,0.1,0.3,0.3,0.3l2,0.1C992.6,267.4,992.7,267.3,992.7,267.1z"/>
		<path class="st21" d="M987.4,268.5c0-0.2,0.2-0.3,0.4-0.3l4.3,0.9c0.2,0,0.3,0.2,0.2,0.4c0,0.2-0.2,0.3-0.4,0.3l-4.3-0.9
			C987.5,268.8,987.4,268.7,987.4,268.5L987.4,268.5z"/>
		<path class="st3" d="M987.4,268.5c0-0.2,0.2-0.3,0.4-0.3l4.3,0.9c0.2,0,0.3,0.2,0.3,0.4c0,0.2-0.2,0.3-0.4,0.3l-4.3-0.9
			C987.5,268.8,987.4,268.7,987.4,268.5L987.4,268.5z M992.3,269.5c0-0.1-0.1-0.3-0.2-0.3l-4.3-0.9c-0.1,0-0.3,0.1-0.3,0.2
			s0.1,0.3,0.2,0.3l4.3,0.9C992.2,269.7,992.3,269.6,992.3,269.5z"/>
		<path class="st21" d="M989.3,271c0-0.2,0.2-0.3,0.4-0.2l0,0l1.9,0.5c0.2,0,0.3,0.2,0.2,0.4c0,0.2-0.2,0.3-0.4,0.2l0,0l-1.9-0.5
			C989.4,271.4,989.3,271.2,989.3,271L989.3,271z"/>
		<path class="st3" d="M989.3,271c0-0.2,0.2-0.3,0.4-0.2l1.9,0.5c0.2,0,0.3,0.2,0.2,0.4c0,0.2-0.2,0.3-0.4,0.2l-1.9-0.5
			C989.4,271.4,989.3,271.2,989.3,271L989.3,271z M991.8,271.7c0-0.1,0-0.3-0.2-0.4l-1.9-0.5c-0.1,0-0.3,0-0.3,0.2
			c0,0.1,0,0.3,0.2,0.4l1.9,0.5C991.6,271.9,991.7,271.9,991.8,271.7z"/>
		<path class="st21" d="M986.4,272c0.1-0.2,0.3-0.2,0.4-0.2l4.1,1.7c0.1,0.1,0.2,0.3,0.2,0.4c-0.1,0.2-0.3,0.2-0.4,0.2l-4.1-1.7
			C986.4,272.4,986.3,272.2,986.4,272L986.4,272z"/>
		<path class="st3" d="M986.3,272c0.1-0.2,0.3-0.3,0.4-0.2l4.1,1.7c0.2,0.1,0.2,0.3,0.2,0.4c-0.1,0.2-0.3,0.3-0.4,0.2l-4.1-1.7
			C986.3,272.4,986.3,272.2,986.3,272z M991,273.9c0.1-0.1,0-0.3-0.1-0.4l-4.1-1.7c-0.1-0.1-0.3,0-0.4,0.2c-0.1,0.1,0,0.3,0.1,0.4
			l4.1,1.7C990.8,274.1,990.9,274.1,991,273.9z"/>
		<path class="st21" d="M987.7,274.9c0.1-0.1,0.3-0.2,0.4-0.1l1.8,0.9c0.1,0.1,0.2,0.3,0.1,0.4c-0.1,0.1-0.3,0.2-0.4,0.1l-1.8-0.9
			C987.7,275.2,987.7,275,987.7,274.9z"/>
		<path class="st3" d="M987.7,274.9c0.1-0.2,0.3-0.2,0.4-0.1l1.8,0.9c0.2,0.1,0.2,0.3,0.1,0.4c-0.1,0.2-0.3,0.2-0.4,0.1l-1.8-0.9
			C987.7,275.2,987.6,275,987.7,274.9z M990,276c0.1-0.1,0-0.3-0.1-0.4l-1.8-0.9c-0.1-0.1-0.3,0-0.4,0.1c-0.1,0.1,0,0.3,0.1,0.4
			l1.8,0.9C989.8,276.2,989.9,276.2,990,276L990,276z"/>
		<path class="st21" d="M984.6,275.3c0.1-0.1,0.3-0.2,0.4-0.1l3.7,2.4c0.1,0.1,0.2,0.3,0.1,0.4c-0.1,0.1-0.3,0.2-0.4,0.1l-3.7-2.4
			C984.6,275.6,984.5,275.4,984.6,275.3z"/>
		<path class="st3" d="M984.6,275.3c0.1-0.1,0.3-0.2,0.5-0.1l3.7,2.4c0.1,0.1,0.2,0.3,0.1,0.5c-0.1,0.1-0.3,0.2-0.5,0.1l-3.7-2.4
			C984.5,275.6,984.5,275.4,984.6,275.3z M988.8,278c0.1-0.1,0.1-0.3-0.1-0.4l-3.7-2.4c-0.1-0.1-0.3,0-0.4,0.1
			c-0.1,0.1-0.1,0.3,0.1,0.4l3.7,2.4C988.5,278.2,988.7,278.2,988.8,278L988.8,278z"/>
		<path class="st21" d="M985.4,278.3c0.1-0.1,0.3-0.2,0.4-0.1l1.5,1.2c0.1,0.1,0.1,0.3,0,0.4s-0.3,0.2-0.4,0.1l-1.5-1.2
			C985.3,278.7,985.3,278.5,985.4,278.3z"/>
		<path class="st3" d="M985.4,278.3c0.1-0.1,0.3-0.2,0.5-0.1l1.5,1.2c0.1,0.1,0.2,0.3,0.1,0.5c-0.1,0.1-0.3,0.2-0.5,0.1l-1.5-1.2
			C985.3,278.7,985.3,278.5,985.4,278.3z M987.4,279.9c0.1-0.1,0.1-0.3,0-0.4l-1.5-1.2c-0.1-0.1-0.3-0.1-0.4,0.1
			c-0.1,0.1-0.1,0.3,0,0.4l1.5,1.2C987.1,280,987.3,280,987.4,279.9L987.4,279.9z"/>
		<path class="st21" d="M982.3,278.1c0.1-0.1,0.3-0.1,0.4,0l3.1,3.1c0.1,0.1,0.1,0.3,0,0.4s-0.3,0.1-0.4,0l-3.1-3.1
			C982.2,278.4,982.2,278.2,982.3,278.1L982.3,278.1z"/>
		<path class="st3" d="M982.3,278.1c0.1-0.1,0.3-0.1,0.5,0l3.1,3.1c0.1,0.1,0.1,0.3,0,0.5c-0.1,0.1-0.3,0.1-0.5,0l-3.1-3.1
			C982.1,278.4,982.1,278.2,982.3,278.1L982.3,278.1z M985.8,281.6c0.1-0.1,0.1-0.3,0-0.4l-3.1-3.1c-0.1-0.1-0.3-0.1-0.4,0
			c-0.1,0.1-0.1,0.3,0,0.4l3.1,3.1C985.5,281.8,985.7,281.8,985.8,281.6L985.8,281.6z"/>
		<path class="st21" d="M982.5,281.3c0.1-0.1,0.3-0.1,0.4,0l1.3,1.5c0.1,0.1,0.1,0.3,0,0.4s-0.3,0.1-0.4,0l-1.3-1.5
			C982.3,281.6,982.3,281.4,982.5,281.3z"/>
		<path class="st3" d="M982.4,281.3c0.1-0.1,0.3-0.1,0.5,0l1.3,1.5c0.1,0.1,0.1,0.3,0,0.5c-0.1,0.1-0.3,0.1-0.5,0l-1.3-1.5
			C982.3,281.6,982.3,281.4,982.4,281.3L982.4,281.3z M984.1,283.2c0.1-0.1,0.1-0.3,0-0.4l-1.3-1.5c-0.1-0.1-0.3-0.1-0.4,0
			c-0.1,0.1-0.1,0.3,0,0.4l1.3,1.5C983.8,283.3,984,283.3,984.1,283.2L984.1,283.2z"/>
		<path class="st21" d="M979.4,280.5c0.1-0.1,0.3-0.1,0.4,0.1l2.4,3.6c0.1,0.1,0,0.3-0.1,0.4s-0.3,0.1-0.4-0.1l-2.4-3.6
			C979.3,280.7,979.3,280.5,979.4,280.5L979.4,280.5z"/>
		<path class="st3" d="M979.4,280.4c0.1-0.1,0.4-0.1,0.5,0.1l2.4,3.6c0.1,0.1,0.1,0.4-0.1,0.5c-0.1,0.1-0.4,0.1-0.5-0.1l-2.4-3.6
			C979.2,280.7,979.3,280.5,979.4,280.4L979.4,280.4z M982.2,284.6c0.1-0.1,0.2-0.3,0.1-0.4l-2.4-3.6c-0.1-0.1-0.3-0.1-0.4-0.1
			c-0.1,0.1-0.2,0.3-0.1,0.4l2.4,3.6C981.9,284.6,982.1,284.7,982.2,284.6L982.2,284.6z"/>
		<path class="st21" d="M979,283.6c0.1-0.1,0.3,0,0.4,0.1l1,1.7c0.1,0.1,0,0.3-0.1,0.4s-0.3,0-0.4-0.1l-1-1.7
			C978.8,283.9,978.8,283.7,979,283.6L979,283.6z"/>
		<path class="st3" d="M979,283.6c0.2-0.1,0.4,0,0.4,0.1l1,1.7c0.1,0.1,0,0.4-0.1,0.4c-0.2,0.1-0.4,0-0.4-0.1l-1-1.7
			C978.8,283.9,978.8,283.7,979,283.6L979,283.6z M980.2,285.8c0.1-0.1,0.2-0.3,0.1-0.4l-1-1.7c-0.1-0.1-0.3-0.2-0.4-0.1
			c-0.1,0.1-0.2,0.3-0.1,0.4l1,1.7C979.9,285.8,980.1,285.9,980.2,285.8L980.2,285.8z"/>
		<path class="st21" d="M976.2,282.2c0.2-0.1,0.3,0,0.4,0.1l1.7,4.1c0.1,0.1,0,0.3-0.2,0.4c-0.1,0.1-0.3,0-0.4-0.1l-1.7-4.1
			C975.9,282.4,976,282.3,976.2,282.2L976.2,282.2z"/>
		<path class="st3" d="M976.2,282.2c0.2-0.1,0.4,0,0.4,0.2l1.7,4.1c0.1,0.2,0,0.4-0.2,0.4c-0.2,0.1-0.4,0-0.4-0.2l-1.7-4.1
			C975.9,282.4,976,282.3,976.2,282.2L976.2,282.2z M978.1,286.8c0.1-0.1,0.2-0.2,0.1-0.4l-1.7-4.1c-0.1-0.1-0.2-0.2-0.4-0.1
			c-0.1,0.1-0.2,0.2-0.1,0.4l1.7,4.1C977.8,286.8,977.9,286.9,978.1,286.8z"/>
		<path class="st21" d="M975.1,285.2c0.2-0.1,0.3,0,0.4,0.2l0.6,1.9c0.1,0.1,0,0.3-0.2,0.4s-0.3,0-0.4-0.2l-0.6-1.9
			C974.9,285.4,975,285.3,975.1,285.2L975.1,285.2z"/>
		<path class="st3" d="M975.1,285.2c0.2-0.1,0.4,0,0.4,0.2l0.6,1.9c0.1,0.2,0,0.4-0.2,0.4c-0.2,0.1-0.4,0-0.4-0.2l-0.6-1.9
			C974.9,285.4,975,285.2,975.1,285.2L975.1,285.2z M975.9,287.6c0.1,0,0.2-0.2,0.2-0.4l-0.6-1.9c0-0.1-0.2-0.2-0.4-0.2
			c-0.1,0-0.2,0.2-0.2,0.4l0.6,1.9C975.6,287.6,975.8,287.6,975.9,287.6L975.9,287.6L975.9,287.6z"/>
		<path class="st21" d="M972.7,283.3c0.2,0,0.3,0.1,0.4,0.2l0.9,4.3c0,0.2-0.1,0.3-0.3,0.4c-0.2,0-0.3-0.1-0.4-0.2l-0.9-4.3
			C972.4,283.5,972.5,283.3,972.7,283.3L972.7,283.3z"/>
		<path class="st3" d="M972.7,283.2c0.2,0,0.4,0.1,0.4,0.3l0.9,4.3c0,0.2-0.1,0.4-0.3,0.4s-0.4-0.1-0.4-0.3l-0.9-4.3
			C972.4,283.5,972.5,283.3,972.7,283.2L972.7,283.2z M973.6,288.2c0.1,0,0.3-0.2,0.2-0.3l-0.9-4.3c0-0.1-0.2-0.3-0.3-0.2
			c-0.1,0-0.3,0.2-0.2,0.3l0.9,4.3C973.3,288.1,973.5,288.2,973.6,288.2L973.6,288.2z"/>
		<path class="st21" d="M971.1,286c0.2,0,0.3,0.1,0.4,0.3l0.3,1.9c0,0.2-0.1,0.3-0.3,0.3s-0.3-0.1-0.4-0.3l-0.3-1.9
			C970.8,286.2,970.9,286,971.1,286z"/>
		<path class="st3" d="M971.1,286c0.2,0,0.4,0.1,0.4,0.3l0.3,1.9c0,0.2-0.1,0.3-0.3,0.4c-0.2,0-0.4-0.1-0.4-0.3l-0.3-1.9
			C970.7,286.2,970.9,286,971.1,286z M971.4,288.5c0.1,0,0.3-0.2,0.3-0.3l-0.3-1.9c0-0.1-0.2-0.3-0.3-0.2c-0.1,0-0.3,0.2-0.3,0.3
			l0.3,1.9C971.1,288.4,971.2,288.5,971.4,288.5z"/>
		<path class="st21" d="M968.9,283.6c0.2,0,0.3,0.1,0.3,0.3v4.4c0,0.2-0.1,0.3-0.3,0.3s-0.3-0.1-0.3-0.3v-4.4
			C968.6,283.8,968.7,283.6,968.9,283.6z"/>
		<path class="st3" d="M968.9,283.6c0.2,0,0.3,0.1,0.3,0.3v4.4c0,0.2-0.1,0.3-0.3,0.3s-0.3-0.1-0.3-0.3v-4.4
			C968.5,283.8,968.7,283.6,968.9,283.6z M968.9,288.6c0.1,0,0.3-0.1,0.3-0.3v-4.4c0-0.1-0.1-0.3-0.3-0.3c-0.1,0-0.3,0.1-0.3,0.3
			v4.4C968.6,288.5,968.7,288.6,968.9,288.6z"/>
		<path class="st21" d="M966.8,286c0.2,0,0.3,0.1,0.3,0.3l-0.1,2c0,0.2-0.2,0.3-0.3,0.3c-0.2,0-0.3-0.1-0.3-0.3l0.1-2
			C966.5,286.1,966.6,286,966.8,286z"/>
		<path class="st3" d="M966.8,286c0.2,0,0.3,0.2,0.3,0.3l-0.1,2c0,0.2-0.2,0.3-0.4,0.3s-0.3-0.2-0.3-0.3l0.1-2
			C966.4,286.1,966.6,286,966.8,286z M966.6,288.5c0.1,0,0.3-0.1,0.3-0.3l0.1-2c0-0.1-0.1-0.3-0.3-0.3c-0.1,0-0.3,0.1-0.3,0.3
			l-0.1,2C966.3,288.4,966.4,288.5,966.6,288.5L966.6,288.5z"/>
		<path class="st21" d="M965.2,283.3c0.2,0,0.3,0.2,0.3,0.4l-0.9,4.3c0,0.2-0.2,0.3-0.4,0.2c-0.2,0-0.3-0.2-0.3-0.4l0.9-4.3
			C964.8,283.4,965,283.2,965.2,283.3z"/>
		<path class="st3" d="M965.2,283.2c0.2,0,0.3,0.2,0.3,0.4l-0.9,4.3c0,0.2-0.2,0.3-0.4,0.3s-0.3-0.2-0.3-0.4l0.9-4.3
			C964.8,283.3,965,283.2,965.2,283.2L965.2,283.2z M964.2,288.2c0.1,0,0.3-0.1,0.3-0.2l0.9-4.3c0-0.1-0.1-0.3-0.2-0.3
			c-0.1,0-0.3,0.1-0.3,0.2l-0.9,4.3C963.9,288,964,288.1,964.2,288.2z"/>
		<path class="st21" d="M962.7,285.2c0.2,0,0.3,0.2,0.2,0.4l-0.5,1.9c0,0.2-0.2,0.3-0.4,0.2c-0.2,0-0.3-0.2-0.2-0.4l0,0l0.5-1.9
			C962.3,285.2,962.5,285.1,962.7,285.2L962.7,285.2z"/>
		<path class="st3" d="M962.7,285.1c0.2,0,0.3,0.2,0.2,0.4l-0.5,1.9c0,0.2-0.2,0.3-0.4,0.2c-0.2,0-0.3-0.2-0.2-0.4l0.5-1.9
			C962.3,285.2,962.5,285.1,962.7,285.1L962.7,285.1z M962,287.6c0.1,0,0.3,0,0.4-0.2l0.5-1.9c0-0.1,0-0.3-0.2-0.3
			c-0.1,0-0.3,0-0.4,0.2l-0.5,1.9C961.7,287.4,961.8,287.6,962,287.6z"/>
		<path class="st21" d="M961.6,282.2c0.2,0.1,0.2,0.3,0.2,0.4l-1.7,4.1c-0.1,0.1-0.3,0.2-0.4,0.1c-0.1-0.1-0.2-0.3-0.2-0.4l1.7-4.1
			C961.3,282.2,961.5,282.1,961.6,282.2L961.6,282.2z"/>
		<path class="st3" d="M961.6,282.2c0.2,0.1,0.3,0.3,0.2,0.4l-1.7,4.1c-0.1,0.2-0.3,0.2-0.4,0.2c-0.2-0.1-0.3-0.3-0.2-0.4l1.7-4.1
			C961.3,282.2,961.5,282.1,961.6,282.2z M959.7,286.8c0.1,0.1,0.3,0,0.4-0.1l1.7-4.1c0.1-0.1,0-0.3-0.2-0.4s-0.3,0-0.4,0.1
			l-1.7,4.1C959.5,286.6,959.6,286.7,959.7,286.8z"/>
		<path class="st21" d="M958.8,283.5c0.1,0.1,0.2,0.3,0.1,0.4l-0.9,1.8c-0.1,0.1-0.3,0.2-0.4,0.1c-0.1-0.1-0.2-0.3-0.1-0.4l0.9-1.8
			C958.4,283.5,958.6,283.5,958.8,283.5z"/>
		<path class="st3" d="M958.8,283.5c0.2,0.1,0.2,0.3,0.1,0.4l-0.9,1.8c-0.1,0.2-0.3,0.2-0.4,0.1c-0.2-0.1-0.2-0.3-0.1-0.4l0.9-1.8
			C958.4,283.5,958.6,283.4,958.8,283.5z M957.6,285.8c0.1,0.1,0.3,0,0.4-0.1l0.9-1.8c0.1-0.1,0-0.3-0.1-0.4s-0.3,0-0.4,0.1
			l-0.9,1.8C957.4,285.6,957.5,285.7,957.6,285.8L957.6,285.8z"/>
		<path class="st21" d="M958.4,280.4c0.1,0.1,0.2,0.3,0.1,0.4l-2.4,3.6c-0.1,0.1-0.3,0.2-0.4,0.1c-0.1-0.1-0.2-0.3-0.1-0.4l2.4-3.6
			C958,280.4,958.2,280.3,958.4,280.4L958.4,280.4z"/>
		<path class="st3" d="M958.4,280.4c0.1,0.1,0.2,0.3,0.1,0.5l-2.4,3.6c-0.1,0.1-0.3,0.2-0.5,0.1c-0.1-0.1-0.2-0.3-0.1-0.5l2.4-3.6
			C958,280.3,958.2,280.3,958.4,280.4L958.4,280.4z M955.6,284.6c0.1,0.1,0.3,0.1,0.4-0.1l2.4-3.6c0.1-0.1,0-0.3-0.1-0.4
			s-0.3-0.1-0.4,0.1l-2.4,3.6C955.4,284.3,955.4,284.5,955.6,284.6L955.6,284.6z"/>
		<path class="st21" d="M955.3,281.2c0.1,0.1,0.2,0.3,0.1,0.4l-1.2,1.5c-0.1,0.1-0.3,0.1-0.4,0c-0.1-0.1-0.2-0.3-0.1-0.4l1.2-1.5
			C955,281.1,955.1,281.1,955.3,281.2z"/>
		<path class="st3" d="M955.3,281.2c0.1,0.1,0.2,0.3,0.1,0.5l-1.2,1.5c-0.1,0.1-0.3,0.2-0.5,0c-0.1-0.1-0.2-0.3-0.1-0.5l1.2-1.5
			C954.9,281.1,955.1,281.1,955.3,281.2z M953.7,283.2c0.1,0.1,0.3,0.1,0.4,0l1.2-1.5c0.1-0.1,0.1-0.3-0.1-0.4
			c-0.1-0.1-0.3-0.1-0.4,0l-1.2,1.5C953.6,282.9,953.6,283.1,953.7,283.2L953.7,283.2z"/>
		<path class="st21" d="M955.5,278c0.1,0.1,0.1,0.3,0,0.4l-3.1,3.1c-0.1,0.1-0.3,0.1-0.4,0c-0.1-0.1-0.1-0.3,0-0.4l3.1-3.1
			C955.2,277.9,955.4,277.9,955.5,278z"/>
		<path class="st3" d="M955.5,278c0.1,0.1,0.1,0.3,0,0.5l-3.1,3.1c-0.1,0.1-0.3,0.1-0.5,0c-0.1-0.1-0.1-0.3,0-0.5l3.1-3.1
			C955.2,277.9,955.4,277.9,955.5,278z M951.9,281.6c0.1,0.1,0.3,0.1,0.4,0l3.1-3.1c0.1-0.1,0.1-0.3,0-0.4s-0.3-0.1-0.4,0l-3.1,3.1
			C951.8,281.3,951.8,281.4,951.9,281.6L951.9,281.6z"/>
		<path class="st21" d="M952.3,278.2c0.1,0.1,0.1,0.3,0,0.4l-1.5,1.3c-0.1,0.1-0.3,0.1-0.4,0c-0.1-0.1-0.1-0.3,0-0.4l1.5-1.3
			C952,278.1,952.2,278.1,952.3,278.2z"/>
		<path class="st3" d="M952.3,278.2c0.1,0.1,0.1,0.4,0,0.5l-1.5,1.3c-0.1,0.1-0.3,0.1-0.5,0c-0.1-0.1-0.1-0.4,0-0.5l1.5-1.3
			C952,278,952.2,278,952.3,278.2L952.3,278.2z M950.4,279.9c0.1,0.1,0.3,0.1,0.4,0l1.5-1.3c0.1-0.1,0.1-0.3,0-0.4s-0.3-0.1-0.4,0
			l-1.5,1.3C950.3,279.6,950.3,279.7,950.4,279.9L950.4,279.9z"/>
		<path class="st21" d="M953.2,275.2c0.1,0.1,0.1,0.3-0.1,0.4l-3.7,2.4c-0.1,0.1-0.3,0-0.4-0.1c-0.1-0.1-0.1-0.3,0.1-0.4l3.7-2.4
			C952.9,275,953.1,275,953.2,275.2L953.2,275.2z"/>
		<path class="st3" d="M953.2,275.2c0.1,0.1,0.1,0.4-0.1,0.5l-3.7,2.4c-0.1,0.1-0.4,0.1-0.5-0.1c-0.1-0.1-0.1-0.4,0.1-0.5l3.7-2.4
			C952.9,275,953.1,275,953.2,275.2L953.2,275.2z M949,277.9c0.1,0.1,0.3,0.2,0.4,0.1l3.7-2.4c0.1-0.1,0.2-0.3,0.1-0.4
			c-0.1-0.1-0.3-0.2-0.4-0.1l-3.7,2.4C948.9,277.6,948.9,277.8,949,277.9L949,277.9z"/>
		<path class="st21" d="M950,274.7c0.1,0.1,0,0.3-0.1,0.4l-1.7,1c-0.1,0.1-0.3,0-0.4-0.1c-0.1-0.1,0-0.3,0.1-0.4l1.7-1
			C949.7,274.5,949.9,274.6,950,274.7L950,274.7z"/>
		<path class="st3" d="M950,274.7c0.1,0.2,0,0.4-0.1,0.4l-1.7,1c-0.1,0.1-0.4,0-0.4-0.1c-0.1-0.2,0-0.4,0.1-0.4l1.7-1
			C949.7,274.5,950,274.6,950,274.7L950,274.7z M947.8,276c0.1,0.1,0.3,0.2,0.4,0.1l1.7-1c0.1-0.1,0.2-0.3,0.1-0.4
			c-0.1-0.1-0.3-0.2-0.4-0.1l-1.7,1C947.8,275.7,947.7,275.8,947.8,276L947.8,276z"/>
		<path class="st21" d="M951.4,271.9c0.1,0.2,0,0.3-0.2,0.4l-4.1,1.7c-0.1,0.1-0.3,0-0.4-0.2c-0.1-0.2,0-0.3,0.2-0.4l4.1-1.7
			C951.2,271.7,951.4,271.8,951.4,271.9L951.4,271.9z"/>
		<path class="st3" d="M951.5,271.9c0.1,0.2,0,0.4-0.2,0.4l-4.1,1.7c-0.2,0.1-0.4,0-0.4-0.2c-0.1-0.2,0-0.4,0.2-0.4l4.1-1.7
			C951.2,271.6,951.4,271.7,951.5,271.9L951.5,271.9z M946.8,273.8c0.1,0.1,0.2,0.2,0.4,0.2l4.1-1.7c0.1-0.1,0.2-0.2,0.1-0.4
			c-0.1-0.1-0.2-0.2-0.4-0.2l-4.1,1.7C946.8,273.5,946.8,273.7,946.8,273.8L946.8,273.8z"/>
		<path class="st21" d="M948.5,270.9c0.1,0.2,0,0.3-0.2,0.4l-1.9,0.6c-0.1,0.1-0.3,0-0.4-0.2c-0.1-0.2,0-0.3,0.2-0.4l1.9-0.6
			C948.2,270.6,948.4,270.7,948.5,270.9z"/>
		<path class="st3" d="M948.5,270.8c0.1,0.2,0,0.4-0.2,0.4l-1.9,0.6c-0.2,0.1-0.4,0-0.4-0.2c-0.1-0.2,0-0.4,0.2-0.4l1.9-0.6
			C948.2,270.6,948.4,270.7,948.5,270.8L948.5,270.8z M946,271.6c0,0.1,0.2,0.2,0.4,0.2l1.9-0.6c0.1,0,0.2-0.2,0.2-0.4
			c0-0.1-0.2-0.2-0.4-0.2l-1.9,0.6C946.1,271.4,946,271.5,946,271.6z"/>
		<path class="st21" d="M950.4,268.4c0,0.2-0.1,0.3-0.2,0.4l-4.3,0.8c-0.2,0-0.3-0.1-0.4-0.3c0-0.2,0.1-0.3,0.2-0.4l4.3-0.8
			C950.2,268.1,950.3,268.2,950.4,268.4L950.4,268.4z"/>
		<path class="st3" d="M950.4,268.4c0,0.2-0.1,0.4-0.3,0.4l-4.3,0.8c-0.2,0-0.3-0.1-0.4-0.3c0-0.2,0.1-0.4,0.3-0.4l4.3-0.8
			C950.2,268,950.4,268.2,950.4,268.4z M945.5,269.3c0,0.1,0.2,0.3,0.3,0.2l4.3-0.8c0.1,0,0.3-0.2,0.2-0.3c0-0.1-0.2-0.3-0.3-0.2
			l-4.3,0.8C945.5,269,945.4,269.2,945.5,269.3L945.5,269.3z"/>
		<path class="st21" d="M947.7,266.7c0,0.2-0.1,0.3-0.3,0.3l-1.9,0.2c-0.2,0-0.3-0.1-0.3-0.3c0-0.2,0.1-0.3,0.3-0.3l1.9-0.2
			C947.5,266.4,947.6,266.6,947.7,266.7z"/>
		<path class="st3" d="M947.7,266.7c0,0.2-0.1,0.4-0.3,0.4l-1.9,0.2c-0.2,0-0.3-0.1-0.4-0.3s0.1-0.4,0.3-0.4l1.9-0.2
			C947.5,266.4,947.7,266.5,947.7,266.7L947.7,266.7z M945.1,267c0,0.1,0.2,0.3,0.3,0.3l1.9-0.2c0.1,0,0.3-0.2,0.2-0.3
			c0-0.1-0.2-0.3-0.3-0.3l-1.9,0.2C945.2,266.7,945.1,266.9,945.1,267z"/>
		<path class="st21" d="M950,264.7c0,0.2-0.1,0.3-0.3,0.3h-4.4c-0.2,0-0.3-0.1-0.3-0.3c0-0.2,0.1-0.3,0.3-0.3h4.4
			C949.9,264.4,950,264.5,950,264.7L950,264.7z"/>
		<path class="st3" d="M950,264.7c0,0.2-0.1,0.3-0.3,0.3h-4.4c-0.2,0-0.3-0.1-0.3-0.3c0-0.2,0.1-0.3,0.3-0.3h4.4
			C949.9,264.3,950,264.5,950,264.7L950,264.7z M945,264.7c0,0.1,0.1,0.3,0.3,0.3h4.4c0.1,0,0.3-0.1,0.3-0.3c0-0.1-0.1-0.3-0.3-0.3
			h-4.4C945.2,264.4,945,264.5,945,264.7L945,264.7z"/>
		<path class="st22" d="M947.7,262.6c0,0.2-0.1,0.3-0.3,0.3l-2-0.1c-0.2,0-0.3-0.2-0.3-0.3c0-0.2,0.1-0.3,0.3-0.3l2,0.1
			C947.6,262.2,947.7,262.4,947.7,262.6z"/>
		<path class="st3" d="M947.7,262.6c0,0.2-0.2,0.3-0.3,0.3l-2-0.1c-0.2,0-0.3-0.2-0.3-0.4c0-0.2,0.2-0.3,0.3-0.3l2,0.1
			C947.6,262.2,947.7,262.4,947.7,262.6L947.7,262.6z M945.1,262.4c0,0.1,0.1,0.3,0.3,0.3l2,0.1c0.1,0,0.3-0.1,0.3-0.3
			c0-0.1-0.1-0.3-0.3-0.3l-2-0.1C945.3,262.1,945.1,262.2,945.1,262.4L945.1,262.4z"/>
		<path class="st21" d="M950.4,261c0,0.2-0.2,0.3-0.4,0.3l-4.3-0.9c-0.2,0-0.3-0.2-0.2-0.4s0.2-0.3,0.4-0.3l4.3,0.9
			C950.3,260.7,950.4,260.8,950.4,261L950.4,261z"/>
		<path class="st3" d="M950.4,261c0,0.2-0.2,0.3-0.4,0.3l-4.3-0.9c-0.2,0-0.3-0.2-0.3-0.4c0-0.2,0.2-0.3,0.4-0.3l4.3,0.9
			C950.3,260.7,950.4,260.8,950.4,261L950.4,261z M945.5,260c0,0.1,0.1,0.3,0.2,0.3l4.3,0.9c0.1,0,0.3-0.1,0.3-0.2s-0.1-0.3-0.2-0.3
			l-4.3-0.9C945.7,259.8,945.5,259.9,945.5,260L945.5,260z"/>
		<path class="st21" d="M948.5,258.5c0,0.2-0.2,0.3-0.4,0.2l0,0l-1.9-0.5c-0.2,0-0.3-0.2-0.2-0.4c0-0.2,0.2-0.3,0.4-0.2l0,0l1.9,0.5
			C948.5,258.1,948.5,258.3,948.5,258.5L948.5,258.5z"/>
		<path class="st3" d="M948.5,258.5c0,0.2-0.2,0.3-0.4,0.2l-1.9-0.5c-0.2,0-0.3-0.2-0.2-0.4c0-0.2,0.2-0.3,0.4-0.2l1.9,0.5
			C948.5,258.1,948.6,258.3,948.5,258.5L948.5,258.5z M946.1,257.8c0,0.1,0,0.3,0.2,0.4l1.9,0.5c0.1,0,0.3,0,0.3-0.2
			c0-0.1,0-0.3-0.2-0.4l-1.9-0.5C946.2,257.6,946.1,257.6,946.1,257.8L946.1,257.8z"/>
		<path class="st21" d="M951.5,257.5c-0.1,0.2-0.3,0.2-0.4,0.2L947,256c-0.1-0.1-0.2-0.3-0.2-0.4c0.1-0.2,0.3-0.2,0.4-0.2l4.1,1.7
			C951.5,257.1,951.5,257.3,951.5,257.5L951.5,257.5z"/>
		<path class="st3" d="M951.5,257.5c-0.1,0.2-0.3,0.3-0.4,0.2L947,256c-0.2-0.1-0.2-0.3-0.2-0.4c0.1-0.2,0.3-0.3,0.4-0.2l4.1,1.7
			C951.5,257.1,951.6,257.3,951.5,257.5z M946.9,255.6c-0.1,0.1,0,0.3,0.1,0.4l4.1,1.7c0.1,0.1,0.3,0,0.4-0.2c0.1-0.1,0-0.3-0.1-0.4
			l-4.1-1.7C947.1,255.4,946.9,255.4,946.9,255.6L946.9,255.6z"/>
		<path class="st21" d="M950.1,254.6c-0.1,0.1-0.3,0.2-0.4,0.1l-1.8-0.9c-0.1-0.1-0.2-0.3-0.1-0.4c0.1-0.1,0.3-0.2,0.4-0.1l1.8,0.9
			C950.1,254.3,950.2,254.5,950.1,254.6L950.1,254.6z"/>
		<path class="st3" d="M950.1,254.6c-0.1,0.2-0.3,0.2-0.4,0.1l-1.8-0.9c-0.2-0.1-0.2-0.3-0.1-0.4c0.1-0.2,0.3-0.2,0.4-0.1l1.8,0.9
			C950.1,254.3,950.2,254.5,950.1,254.6L950.1,254.6z M947.8,253.5c-0.1,0.1,0,0.3,0.1,0.4l1.8,0.9c0.1,0.1,0.3,0,0.4-0.1
			c0.1-0.1,0-0.3-0.1-0.4l-1.8-0.9C948.1,253.3,947.9,253.3,947.8,253.5L947.8,253.5z"/>
		<path class="st21" d="M953.2,254.2c-0.1,0.1-0.3,0.2-0.4,0.1l-3.6-2.4c-0.1-0.1-0.2-0.3-0.1-0.4c0.1-0.1,0.3-0.2,0.4-0.1l3.7,2.4
			C953.3,253.9,953.3,254.1,953.2,254.2L953.2,254.2z"/>
		<path class="st3" d="M953.2,254.2c-0.1,0.1-0.3,0.2-0.5,0.1l-3.6-2.4c-0.1-0.1-0.2-0.3-0.1-0.5c0.1-0.1,0.3-0.2,0.5-0.1l3.6,2.4
			C953.3,253.9,953.3,254.1,953.2,254.2L953.2,254.2z M949.1,251.5c-0.1,0.1-0.1,0.3,0.1,0.4l3.7,2.4c0.1,0.1,0.3,0,0.4-0.1
			c0.1-0.1,0.1-0.3-0.1-0.4l-3.7-2.4C949.3,251.3,949.2,251.3,949.1,251.5L949.1,251.5z"/>
		<path class="st21" d="M952.4,251.2c-0.1,0.1-0.3,0.2-0.4,0.1l-1.5-1.2c-0.1-0.1-0.1-0.3,0-0.4c0.1-0.1,0.3-0.2,0.4-0.1l1.5,1.2
			C952.5,250.8,952.5,251,952.4,251.2z"/>
		<path class="st3" d="M952.4,251.2c-0.1,0.1-0.3,0.2-0.5,0.1l-1.5-1.2c-0.1-0.1-0.2-0.3-0.1-0.5c0.1-0.1,0.3-0.2,0.5-0.1l1.5,1.2
			C952.5,250.8,952.6,251,952.4,251.2L952.4,251.2z M950.4,249.6c-0.1,0.1-0.1,0.3,0,0.4l1.5,1.2c0.1,0.1,0.3,0.1,0.4-0.1
			c0.1-0.1,0.1-0.3,0-0.4l-1.5-1.2C950.7,249.5,950.5,249.5,950.4,249.6L950.4,249.6z"/>
		<path class="st21" d="M955.6,251.4c-0.1,0.1-0.3,0.1-0.4,0l-3.1-3.1c-0.1-0.1-0.1-0.3,0-0.4c0.1-0.1,0.3-0.1,0.4,0l3.1,3.1
			C955.7,251.1,955.7,251.3,955.6,251.4L955.6,251.4z"/>
		<path class="st3" d="M955.6,251.4c-0.1,0.1-0.3,0.1-0.5,0l-3.1-3.1c-0.1-0.1-0.1-0.3,0-0.5c0.1-0.1,0.3-0.1,0.5,0l3.1,3.1
			C955.7,251.1,955.7,251.3,955.6,251.4L955.6,251.4z M952,247.9c-0.1,0.1-0.1,0.3,0,0.4l3.1,3.1c0.1,0.1,0.3,0.1,0.4,0
			c0.1-0.1,0.1-0.3,0-0.4l-3.1-3.1C952.3,247.7,952.2,247.7,952,247.9L952,247.9z"/>
		<path class="st21" d="M955.4,248.2c-0.1,0.1-0.3,0.1-0.4,0l-1.3-1.5c-0.1-0.1-0.1-0.3,0-0.4c0.1-0.1,0.3-0.1,0.4,0l1.3,1.5
			C955.5,247.9,955.5,248.1,955.4,248.2L955.4,248.2z"/>
		<path class="st3" d="M955.4,248.2c-0.1,0.1-0.3,0.1-0.5,0l-1.3-1.5c-0.1-0.1-0.1-0.3,0-0.5c0.1-0.1,0.3-0.1,0.5,0l1.3,1.5
			C955.5,247.9,955.5,248.1,955.4,248.2z M953.7,246.3c-0.1,0.1-0.1,0.3,0,0.4l1.3,1.5c0.1,0.1,0.3,0.1,0.4,0c0.1-0.1,0.1-0.3,0-0.4
			l-1.3-1.5C954,246.2,953.8,246.2,953.7,246.3L953.7,246.3z"/>
		<path class="st21" d="M958.4,249c-0.1,0.1-0.3,0.1-0.4-0.1l-2.5-3.6c-0.1-0.1,0-0.3,0.1-0.4c0.1-0.1,0.3-0.1,0.4,0.1l2.4,3.6
			C958.6,248.8,958.5,249,958.4,249L958.4,249z"/>
		<path class="st3" d="M958.4,249.1c-0.1,0.1-0.4,0.1-0.5-0.1l-2.4-3.6c-0.1-0.1-0.1-0.4,0.1-0.5c0.1-0.1,0.4-0.1,0.5,0.1l2.4,3.6
			C958.6,248.8,958.6,249,958.4,249.1z M955.6,244.9c-0.1,0.1-0.2,0.3-0.1,0.4l2.4,3.6c0.1,0.1,0.3,0.1,0.4,0.1
			c0.1-0.1,0.2-0.3,0.1-0.4L956,245C955.9,244.9,955.8,244.8,955.6,244.9L955.6,244.9z"/>
		<path class="st21" d="M958.9,245.9c-0.1,0.1-0.3,0-0.4-0.1l-1-1.7c-0.1-0.1,0-0.3,0.1-0.4c0.1-0.1,0.3,0,0.4,0.1l1,1.7
			C959,245.6,959,245.8,958.9,245.9L958.9,245.9z"/>
		<path class="st3" d="M958.9,245.9c-0.2,0.1-0.4,0-0.4-0.1l-1-1.7c-0.1-0.1,0-0.4,0.1-0.4c0.2-0.1,0.4,0,0.4,0.1l1,1.7
			C959.1,245.6,959,245.8,958.9,245.9L958.9,245.9z M957.6,243.7c-0.1,0.1-0.2,0.3-0.1,0.4l1,1.7c0.1,0.1,0.3,0.2,0.4,0.1
			c0.1-0.1,0.2-0.3,0.1-0.4l-1-1.7C957.9,243.7,957.7,243.6,957.6,243.7L957.6,243.7z"/>
		<path class="st21" d="M961.7,247.3c-0.2,0.1-0.3,0-0.4-0.1l-1.7-4.1c-0.1-0.1,0-0.3,0.2-0.4c0.2-0.1,0.3,0,0.4,0.1l1.7,4.1
			C961.9,247.1,961.8,247.2,961.7,247.3L961.7,247.3z"/>
		<path class="st3" d="M961.7,247.3c-0.2,0.1-0.4,0-0.4-0.2l-1.7-4.1c-0.1-0.2,0-0.4,0.2-0.4c0.2-0.1,0.4,0,0.4,0.2l1.7,4.1
			C961.9,247.1,961.8,247.2,961.7,247.3L961.7,247.3z M959.7,242.7c-0.1,0.1-0.2,0.2-0.1,0.4l1.7,4.1c0.1,0.1,0.2,0.2,0.4,0.1
			c0.1-0.1,0.2-0.2,0.1-0.4l-1.7-4.1C960,242.7,959.9,242.6,959.7,242.7L959.7,242.7z"/>
		<path class="st21" d="M962.7,244.3c-0.2,0.1-0.3,0-0.4-0.2l-0.6-1.9c-0.1-0.1,0-0.3,0.2-0.4c0.1,0,0.3,0,0.4,0.2l0.6,1.9
			C963,244.1,962.9,244.2,962.7,244.3L962.7,244.3z"/>
		<path class="st3" d="M962.7,244.3c-0.2,0.1-0.4,0-0.4-0.2l-0.6-1.9c-0.1-0.2,0-0.4,0.2-0.4c0.2-0.1,0.4,0,0.4,0.2l0.6,1.9
			C963,244.1,962.9,244.3,962.7,244.3z M961.9,241.9c-0.1,0-0.2,0.2-0.2,0.4l0.6,1.9c0,0.1,0.2,0.2,0.4,0.2c0.1,0,0.2-0.2,0.2-0.4
			l-0.6-1.9C962.2,241.9,962.1,241.9,961.9,241.9L961.9,241.9L961.9,241.9z"/>
		<path class="st21" d="M965.2,246.2c-0.2,0-0.3-0.1-0.4-0.2l-0.9-4.3c0-0.2,0.1-0.3,0.3-0.4c0.2,0,0.3,0.1,0.4,0.2l0.9,4.3
			C965.5,246,965.4,246.2,965.2,246.2z"/>
		<path class="st3" d="M965.2,246.3c-0.2,0-0.4-0.1-0.4-0.3l-0.9-4.3c0-0.2,0.1-0.4,0.3-0.4s0.4,0.1,0.4,0.3l0.9,4.3
			C965.5,246,965.4,246.2,965.2,246.3L965.2,246.3z M964.2,241.3c-0.1,0-0.3,0.2-0.2,0.3l0.9,4.3c0,0.1,0.2,0.3,0.3,0.2
			c0.1,0,0.3-0.2,0.2-0.3l-0.9-4.3C964.5,241.4,964.3,241.3,964.2,241.3L964.2,241.3z"/>
		<path class="st21" d="M966.8,243.5c-0.2,0-0.3-0.1-0.4-0.3l-0.3-1.9c0-0.2,0.1-0.3,0.3-0.3s0.3,0.1,0.4,0.3l0.3,1.9
			C967.1,243.3,967,243.5,966.8,243.5L966.8,243.5z"/>
		<path class="st3" d="M966.8,243.5c-0.2,0-0.4-0.1-0.4-0.3l-0.3-1.9c0-0.2,0.1-0.3,0.3-0.4c0.2,0,0.4,0.1,0.4,0.3l0.3,1.9
			C967.1,243.3,967,243.5,966.8,243.5z M966.5,241c-0.1,0-0.3,0.2-0.3,0.3l0.3,1.9c0,0.1,0.2,0.3,0.3,0.2c0.1,0,0.3-0.2,0.3-0.3
			l-0.3-1.9C966.8,241.1,966.6,241,966.5,241L966.5,241z"/>
		
			<linearGradient id="SVGID_16_" gradientUnits="userSpaceOnUse" x1="-16405.0723" y1="202.0022" x2="-16405.0723" y2="201.9799" gradientTransform="matrix(2240.2344 0 0 2240.2344 36752176 -12817.2559)">
			<stop  offset="0" style="stop-color:#000000;stop-opacity:0"/>
			<stop  offset="1" style="stop-color:#000000"/>
		</linearGradient>
		<circle class="st23" cx="969.1" cy="264.7" r="25"/>
	</g>
	<g>
		<polygon class="st24" points="996.1,257.6 975.9,270.5 975.9,270.5 975.9,270.5 975.9,270.6 963.3,291.3 981.8,276.4 981.8,276.4 
			981.8,276.4 		"/>
	</g>
	<path class="st25" d="M995.7,256.4l-19.9,14.2l5.9,5.9L995.7,256.4"/>
	<path class="st26" d="M975.8,270.5l3,2.9l16.9-17L975.8,270.5L975.8,270.5z"/>
	<path class="st27" d="M975.8,270.5l5.9,5.9l-19.9,14.2L975.8,270.5L975.8,270.5z"/>
	<path class="st28" d="M961.8,290.5l17-17.1l-3-2.9L961.8,290.5L961.8,290.5z"/>
</g>
<g>
	<circle id="circle47_1_" class="st3" cx="801.8" cy="297.1" r="24.6"/>
	
		<linearGradient id="circle53_2_" gradientUnits="userSpaceOnUse" x1="-15985.6367" y1="539.2657" x2="-15985.6367" y2="539.0421" gradientTransform="matrix(82 0 0 -82 1311624 44507.6875)">
		<stop  offset="0" style="stop-color:#81B4E0"/>
		<stop  offset="1" style="stop-color:#0C5A94"/>
	</linearGradient>
	<circle id="circle53_1_" class="st29" cx="801.8" cy="297.1" r="9.2"/>
	
		<linearGradient id="path55_2_" gradientUnits="userSpaceOnUse" x1="600.1" y1="-14891.2549" x2="600.1" y2="-14911.6201" gradientTransform="matrix(1 0 0 -1 202.5 -14619.2246)">
		<stop  offset="0" style="stop-color:#F06B59"/>
		<stop  offset="1" style="stop-color:#DF2227"/>
	</linearGradient>
	<path id="path55_1_" class="st30" d="M824.2,285.9c-6.2-12.4-21.2-17.5-33.6-11.3c-3.9,1.9-7.2,4.8-9.6,8.4l10.1,17.5
		c-1.9-5.9,1.4-12.2,7.3-14c1-0.3,2.1-0.5,3.2-0.5"/>
	
		<linearGradient id="path57_2_" gradientUnits="userSpaceOnUse" x1="580.3688" y1="-14934.1416" x2="590.6631" y2="-14917.1338" gradientTransform="matrix(1 0 0 -1 202.5 -14619.2246)">
		<stop  offset="0" style="stop-color:#388B41"/>
		<stop  offset="1" style="stop-color:#4CB749"/>
	</linearGradient>
	<path id="path57_1_" class="st31" d="M781,283c-7.7,11.5-4.6,27.1,6.9,34.8c3.6,2.4,7.7,3.8,11.9,4.2l10.5-17.9
		c-3.9,4.8-11,5.4-15.8,1.5c-1.6-1.3-2.8-3.1-3.5-5.1"/>
	
		<linearGradient id="path59_2_" gradientUnits="userSpaceOnUse" x1="614.8535" y1="-14935.9404" x2="603.8881" y2="-14909.5332" gradientTransform="matrix(1 0 0 -1 202.5 -14619.2246)">
		<stop  offset="0" style="stop-color:#E4B022"/>
		<stop  offset="0.3" style="stop-color:#FCD209"/>
	</linearGradient>
	<path id="path59_1_" class="st32" d="M799.8,321.9c13.8,1,25.8-9.3,26.9-23.1c0.3-4.5-0.5-8.9-2.5-12.9h-22.6
		c6.2,0,11.2,5.1,11.1,11.2c0,2.5-0.9,4.9-2.4,6.9"/>
	
		<linearGradient id="path61_2_" gradientUnits="userSpaceOnUse" x1="583.75" y1="-14919.0049" x2="583.75" y2="-14901.1025" gradientTransform="matrix(1 0 0 -1 202.5 -14619.2246)">
		<stop  offset="0" style="stop-color:#000000;stop-opacity:0.15"/>
		<stop  offset="0.3" style="stop-color:#000000;stop-opacity:6.000000e-02"/>
		<stop  offset="1" style="stop-color:#000000;stop-opacity:3.000000e-02"/>
	</linearGradient>
	<path id="path61_1_" class="st33" d="M781,283l10.1,17.5c-0.7-2.5-0.6-5.2,0.4-7.6l-10.1-10.5"/>
	
		<linearGradient id="path63_2_" gradientUnits="userSpaceOnUse" x1="608.4501" y1="-14924.7578" x2="596.1417" y2="-14937.29" gradientTransform="matrix(1 0 0 -1 202.5 -14619.2246)">
		<stop  offset="0" style="stop-color:#000000;stop-opacity:0.15"/>
		<stop  offset="0.3" style="stop-color:#000000;stop-opacity:6.000000e-02"/>
		<stop  offset="1" style="stop-color:#000000;stop-opacity:3.000000e-02"/>
	</linearGradient>
	<path id="path63_1_" class="st34" d="M799.8,321.9l10.5-17.9c-1.7,2-4,3.3-6.5,3.8l-4.5,14.1"/>
	
		<linearGradient id="path65_2_" gradientUnits="userSpaceOnUse" x1="608.2795" y1="-14928.3896" x2="610.0698" y2="-14910.7109" gradientTransform="matrix(1 0 0 -1 202.5 -14619.2246)">
		<stop  offset="0" style="stop-color:#000000;stop-opacity:0.15"/>
		<stop  offset="0.3" style="stop-color:#000000;stop-opacity:6.000000e-02"/>
		<stop  offset="1" style="stop-color:#000000;stop-opacity:3.000000e-02"/>
	</linearGradient>
	<path id="path65_1_" class="st35" d="M824.2,285.9h-22.6c3.4,0,6.6,1.6,8.7,4.3l14.3-3.6"/>
</g>
<path class="st36" d="M568.3,385.6c14.9-15.1,39-15.1,53.8,0c13.2,13.4,14.7,34.2,4.5,49.2c-0.1,0.2-0.1,0.3,0,0.1
	c12.6-17.5,11.1-42.2-4.5-58c-15.2-15.5-39-17.2-56.2-5.2c-2.2,1.5-0.9,0.6-0.3,0.1c0.3-0.2,0.6-0.4,0.9-0.6
	c19.5-13.9,46.7-12,64.2,5.7c19.6,19.9,19.6,52.1,0,72c-17.2,17.5-45.2,17.5-62.4,0S551.1,403.1,568.3,385.6z M586.6,437.5
	c0.6-0.8,2.2-1.7,5.3,0.2c1.6,0.9,3.1,1.7,3.8,2c1.5,0.7,3.4,1.7,5,0.8c1.6-0.8,1.6-2.5,1.5-2.8c-0.1-0.5,0-0.8,0.6-0.7
	c1,0.1,1.5-0.3,1.7-0.8s0.1-1.1-0.5-1.7c2.8,0.7,2.6-0.4,2.6-1c0.1-0.9,0.2-1.3,0.4-1.7c0.3,0,1,0.1,2.1,0c2.4-0.2,1.9-1.8,1.6-2.6
	c-0.4-1-0.7-1.8-1.2-3.3c-0.9-2.6,0.6-5.1,1.3-6.6c0.4-0.8,1.9-3.6,1.9-7.4c0-5.2-2.8-9.7-7-12.1c2.9,0.8,5.6,2.4,7.9,4.7
	c6.6,6.7,7.1,17.3,1.5,24.6c-0.1,0.2-0.1,0.2,0,0c8.8-10.5,8.3-26.2-1.5-36.1c-10.3-10.4-27-10.4-37.3,0l0,0
	c-13.4,13.6-13.7,36,0,49.3c9.7,9.5,23.7,11,35.2,6.2c6.1-2.5,10-7,10-7s-2.3,2.9-8.8,5c-8.7,2.8-18.2,2.5-25-4.4
	C585.4,439.8,586.1,438.1,586.6,437.5z"/>
<g>
	<g transform="matrix(.569 0 0 .569 199.451 -82.735)">
		<path class="st37" d="M463.2,1134.2l-12.7,4.1l-11,4.9l-3.1,0.8c-0.8,0.7-1.6,1.5-2.5,2.3c-1,0.8-1.9,1.6-2.6,2.2
			c-0.8,0.6-1.9,1.8-2.5,2.5c-0.9,1.1-1.6,2.3-1.9,3.1c-0.5,1.6-0.3,3.2,0.7,4.7c1.3,1.9,3.9,3.9,6.9,5.2c1.5,0.7,4.1,1.6,6.1,2
			c3.2,0.8,9.5,1.7,13,1.8c0.7,0,1.6,0,1.7,0s0.6-1.1,1.2-2.3c2.1-4.3,3.7-8.4,4.5-11.9c0.5-2.1,0.9-4.9,1.1-8.2
			c0.1-0.9,0.1-4,0-5.1c-0.1-1.7-0.2-3.1-0.5-4.5c0-0.2,0-0.4,0-0.4s0.2-0.1,1.7-0.5L463.2,1134.2L463.2,1134.2L463.2,1134.2
			L463.2,1134.2z M460.3,1135.9c0.1,0,0.4,2.9,0.5,4.8c0,0.4,0,0.7,0,0.7c-0.1,0-1.6-0.9-2.7-1.6c-1-0.6-2.8-1.8-3.1-2
			c-0.1-0.1-0.1-0.1,0.7-0.3C457.1,1136.9,460.2,1135.9,460.3,1135.9z M453.9,1138c0.1,0,0.3,0.1,0.8,0.5c2,1.2,4.7,2.7,5.8,3.2
			c0.4,0.2,0.4,0.1-0.4,0.7c-1.7,1.2-3.9,2.4-6.6,3.5c-0.5,0.2-0.9,0.4-0.9,0.4s0-0.2,0.1-0.5c0.6-2.4,1-4.8,1-6.7
			C453.8,1138,453.8,1138,453.9,1138L453.9,1138L453.9,1138z M452.6,1138.5c0.1,0.1,0,2.2-0.1,2.8c-0.2,1.4-0.4,2.7-0.9,4.2
			c-0.1,0.4-0.2,0.7-0.2,0.7s-1.4-1.2-1.8-1.7c-0.7-0.9-1.3-1.7-1.8-2.6c-0.2-0.4-0.6-1.3-0.5-1.3
			C447.5,1140.4,452.5,1138.4,452.6,1138.5L452.6,1138.5z M446.3,1140.9L446.3,1140.9c0,0,0.1,0.2,0.2,0.4c0.3,0.8,1,2.1,1.6,2.8
			c0.7,0.9,1.5,1.8,2.2,2.4c0.2,0.2,0.4,0.4,0.5,0.4c0.1,0.1,0.1,0-1.5,0.6c-1.8,0.7-3.8,1.4-6,2.1c-0.5,0.2-1.1,0.3-1.6,0.5
			c-0.1,0-0.1,0,0.2-0.4c1.1-1.8,2.8-5.2,3.8-7.6c0.2-0.4,0.3-0.8,0.4-0.9c0-0.1,0.1-0.2,0.2-0.2
			C446.2,1141,446.3,1140.9,446.3,1140.9L446.3,1140.9z M444.4,1141.7c0,0-0.5,1-0.9,2c-0.9,1.8-1.9,3.6-3.3,5.8
			c-0.2,0.4-0.5,0.7-0.5,0.8c0,0.1-0.1,0-0.2-0.2c-0.3-0.6-0.6-1.5-0.7-2.2s-0.1-2,0-2.9c0.1-0.6,0.1-0.6,0.4-0.7
			C440.4,1143.6,444.3,1141.7,444.4,1141.7L444.4,1141.7z M460.9,1142.4v0.4c0,2.1-0.2,5.1-0.6,7.2c-0.1,0.4-0.1,0.7-0.1,0.7
			s-0.3-0.1-0.6-0.2c-1.4-0.5-3-1.1-4.4-1.9c-0.9-0.5-2.3-1.3-2.2-1.4c0,0,0.4-0.2,0.9-0.5c1.9-1,3.7-2,5.2-3.1
			c0.6-0.4,1.5-1,1.7-1.2H460.9L460.9,1142.4z M437.1,1145.2c0,0,0,0.1,0,0.4c0,0.2-0.1,0.7-0.1,1c-0.1,1.4,0.2,2.4,0.8,3.9
			c0.2,0.4,0.3,0.7,0.3,0.7c-0.1,0.1-6.4,1.9-8.4,2.5c-0.6,0.2-1.1,0.3-1.1,0.3c-0.1,0-0.1,0,0-0.2c0.2-1.4,1.3-3.2,2.8-4.8
			c1-1,1.8-1.6,3.2-2.4C435.5,1146.1,437,1145.3,437.1,1145.2L437.1,1145.2L437.1,1145.2z M452.1,1147.9c0,0,0.2,0.1,0.5,0.3
			c2,1.2,4.9,2.3,7.3,2.9h0.2l-0.3,0.2c-1.3,0.7-5.5,2.5-9.7,4.1c-0.6,0.2-1.2,0.5-1.4,0.5c-0.1,0-0.2,0.1-0.2,0.1s0.2-0.3,0.4-0.8
			c1.2-2.2,2.4-5,3-6.9C452,1148.1,452.1,1147.9,452.1,1147.9L452.1,1147.9z M450.6,1148.4c0,0-0.1,0.2-0.2,0.4
			c-0.8,2-1.9,4.2-3.3,6.7c-0.4,0.6-0.7,1.1-0.7,1.1s-0.3-0.2-0.6-0.4c-2-1.2-3.8-2.8-5-4.3l-0.2-0.2l0.9-0.2
			c3.1-0.9,5.8-1.8,8.4-2.9C450.2,1148.5,450.6,1148.4,450.6,1148.4z M460,1151.7L460,1151.7c0,0.2-0.5,2.2-0.9,3.6
			c-0.3,1.2-0.6,2.1-1.1,3.8c-0.2,0.7-0.4,1.3-0.4,1.3h-0.1c-2.8-0.5-5.4-1.2-7.8-2.2c-0.7-0.3-1.6-0.7-1.7-0.7c0,0,0.6-0.3,1.3-0.6
			c4.4-1.9,8.9-4.1,10.4-5C459.9,1151.8,460,1151.7,460,1151.7L460,1151.7z M438.2,1152.5c0,0-1.2,1.8-2.9,4.2
			c-0.6,0.8-1.3,1.8-1.5,2.2c-0.3,0.4-0.7,0.9-0.9,1.3l-0.4,0.6l-0.4-0.4c-0.5-0.4-1.4-1.3-1.8-1.8c-0.8-1-1.4-2.1-1.6-3.1
			c-0.1-0.5-0.1-0.7,0-0.7s2.7-0.6,5.1-1.2c1.3-0.3,2.9-0.7,3.4-0.8C437.7,1152.6,438.2,1152.5,438.2,1152.5L438.2,1152.5z
			 M439.4,1152.9l0.3,0.3c1.4,1.5,2.8,2.7,4.5,3.7c0.3,0.2,0.5,0.3,0.5,0.3c-0.1,0-5.9,2.1-8.6,3.1c-1.5,0.5-2.8,1-2.8,1
			s-0.1-0.1-0.2-0.1l-0.2-0.1l0.3-0.4c0.9-1.3,2-2.7,4.5-5.7L439.4,1152.9L439.4,1152.9z M447,1158.4c0,0,0.4,0.1,0.9,0.3
			c1.2,0.5,2.2,0.8,3.6,1.1c1.6,0.4,4,0.8,5.4,0.9c0.2,0,0.3,0,0.3,0.1c-0.1,0-1.5,0.5-2.5,0.8c-1.6,0.5-6.7,2-10.8,3.2
			c-0.8,0.2-1.4,0.4-1.4,0.4c-0.1,0-0.4-0.1-0.4-0.1s0.2-0.3,0.5-0.6c1.4-1.6,2.7-3.5,3.9-5.2C446.8,1158.8,447,1158.4,447,1158.4
			L447,1158.4z M445.4,1158.5c0,0-0.7,1.1-1.9,3c-0.5,0.8-1.1,1.7-1.3,2c-0.2,0.3-0.5,0.8-0.6,1.1l-0.3,0.5h-0.1
			c-0.3-0.1-2.8-0.9-3.4-1.2c-0.8-0.3-1.6-0.7-2.2-1c-0.8-0.4-1.7-1-1.6-1c0,0,1.3-0.4,2.9-0.8c4.2-1.1,6.5-1.8,8-2.3
			C445.1,1158.5,445.4,1158.4,445.4,1158.5L445.4,1158.5z M457.3,1161.3L457.3,1161.3c0,0.1-1.5,4.4-2.1,5.8
			c-0.1,0.3-0.2,0.4-0.2,0.4c-0.2,0-2.4-0.3-3.8-0.5c-2.4-0.4-6.4-1.1-7.4-1.3h-0.2l1.4-0.3c3.1-0.7,4.5-1.1,6-1.5
			c1.9-0.6,3.8-1.3,5.6-2.2C457,1161.4,457.2,1161.3,457.3,1161.3L457.3,1161.3z"/>
		<path class="st37" d="M450.2,1104.6c-0.2,0-3.6,1.2-5.8,2.1c-3,1.2-5.3,2.4-6.7,3.4c-0.5,0.4-1.2,1-1.3,1.3c0,0.1-0.1,0.2-0.1,0.3
			l1.3,1.2l3.1,1l7.3,1.3l8.3,1.4l0.1-0.7c0,0,0,0-0.1,0l-1.1-0.2l-0.2-0.4c-1.1-2-2.4-4.5-3.1-6.1c-0.6-1.3-1.1-2.8-1.4-3.9
			C450.3,1104.7,450.3,1104.6,450.2,1104.6L450.2,1104.6L450.2,1104.6L450.2,1104.6z M450,1105.1L450,1105.1c0,0,0.1,0.3,0.1,0.6
			c0.2,1.3,0.5,2.6,0.9,4c0.4,1.1,0.4,1-0.1,0.9c-1-0.3-5.4-1-8.5-1.5c-0.5-0.1-0.9-0.1-0.9-0.1s2.3-1.3,3.3-1.7
			C446.1,1106.7,449.7,1105.2,450,1105.1L450,1105.1z M440.8,1109.4l0.4,0.1c2,0.7,7.1,1.7,10,1.9c0.3,0,0.6,0.1,0.6,0.1
			s-0.3,0.2-0.6,0.3c-1.4,0.7-2.9,1.5-3.9,2.2c-0.3,0.2-0.6,0.3-0.6,0.3s-0.2,0-0.5-0.1l-0.4-0.1l-1-0.9c-1.7-1.6-3-2.9-3.5-3.4
			L440.8,1109.4z M440.4,1109.7l1.4,1.7c0.7,0.9,1.5,1.8,1.6,2c0.2,0.2,0.3,0.4,0.3,0.4s-2-0.3-3-0.6c-1-0.2-1.5-0.4-2.1-0.6
			l-0.5-0.2v-0.1c0-0.6,0.8-1.6,2.2-2.6L440.4,1109.7L440.4,1109.7z M451.9,1112c0,0,0.1,0.1,0.2,0.3c0.3,0.7,1.3,2.7,1.6,3
			c0.1,0.1,0.2,0.1-1.1-0.1c-3.2-0.5-4.3-0.7-4.3-0.7s0.1-0.1,0.2-0.1c1-0.6,2-1.3,2.9-2C451.6,1112.2,451.8,1112,451.9,1112
			C451.8,1112,451.9,1112,451.9,1112L451.9,1112z"/>
		<path class="st37" d="M436.5,1111.2c0,0-0.2,0.3,0,0.8c0.1,0.3,0.5,0.7,0.9,1.1c0,0,4.3,4.2,4.8,4.8c2.4,2.7,3.4,5.4,3.5,9.1
			c0.1,2.4-0.4,4.5-1.5,6.9c-2,4.3-6.2,9.1-12.7,14.5l0.9-0.3c0.6-0.5,1.4-0.9,3.4-2c4.5-2.5,9.6-4.7,15.8-7.1
			c9-3.4,23.7-7.3,32.1-8.6l0.9-0.1l-0.1-0.2c-0.8-1.2-1.3-1.9-1.9-2.7c-1.8-2.3-4.1-4.1-6.8-5.7c-3.8-2.1-8.6-3.7-14.8-5
			c-1.2-0.2-3.7-0.7-5.8-1c-4.4-0.7-7.2-1.1-10.3-1.7c-1.1-0.2-2.8-0.5-3.9-0.7c-0.6-0.1-1.7-0.4-2.5-0.7
			C437.7,1112.3,436.7,1112,436.5,1111.2L436.5,1111.2z M438.9,1113.6c0,0,0.2,0,0.4,0.1c0.4,0.1,0.8,0.3,1.4,0.4
			c0.4,0.1,0.8,0.2,1.3,0.3c0.6,0.1,1.1,0.3,1.1,0.3c0.1,0.1,1,3.2,1.4,4.3c0.1,0.5,0.2,0.8,0.2,0.8s-0.1-0.2-0.2-0.4
			c-1.1-2-2.9-4-4.9-5.6C439.1,1113.8,438.9,1113.6,438.9,1113.6L438.9,1113.6z M443.6,1114.9c0,0,0.3,0,0.5,0.1
			c1.6,0.4,4.5,0.9,6.4,1.2c0.3,0,0.6,0.1,0.6,0.1s-0.1,0.1-0.3,0.2c-0.3,0.2-1.6,0.9-2,1.2c-1.1,0.7-2,1.5-2.7,2.2
			c-0.3,0.3-0.5,0.5-0.5,0.5s-0.1-0.2-0.1-0.4c-0.3-1.3-1.1-3.3-1.7-4.7C443.7,1115.1,443.6,1114.9,443.6,1114.9L443.6,1114.9
			L443.6,1114.9z M451.9,1116.5c0.1,0,0.2,0.3,0.3,1.1c0.4,1.4,0.5,2.9,0.5,4.4c0,0.4,0,0.8-0.1,0.8v0.1l-0.5-0.2
			c-1-0.3-2.7-0.8-4.1-1.2c-0.8-0.2-1.5-0.4-1.5-0.4c0-0.1,1.2-1.2,1.7-1.7C449.2,1118.5,451.9,1116.5,451.9,1116.5L451.9,1116.5z
			 M452.6,1116.6c0,0,4,0.7,5.8,1c1.3,0.3,3.3,0.7,3.4,0.7s-0.1,0.1-0.8,0.4c-2.5,1.1-4.4,2.2-6.3,3.4c-0.5,0.3-0.9,0.6-0.9,0.6
			s0-0.3,0-0.6c0-1.8-0.4-3.7-1-5.2C452.7,1116.7,452.6,1116.6,452.6,1116.6z M462.8,1118.6c0,0-0.1,0.8-0.2,1.3
			c-0.3,1.4-1.3,3.5-2.4,5.5c-0.2,0.4-0.4,0.6-0.4,0.7c0,0-0.3-0.1-0.6-0.3c-1.1-0.7-2.4-1.3-3.8-1.8c-0.4-0.2-0.7-0.3-0.7-0.3
			c-0.1-0.1,3-2.1,4.6-3.1C460.6,1119.7,462.7,1118.6,462.8,1118.6L462.8,1118.6z M463.5,1118.7c0.1,0,1.8,0.5,2.7,0.7
			c2.3,0.7,4.8,1.6,6.5,2.4l0.7,0.3l-0.5,0.1c-4.1,0.9-7.6,2-11,3.4c-0.3,0.1-0.5,0.2-0.5,0.2s0.1-0.2,0.2-0.5
			c1-2.2,1.7-4.4,1.8-6.4C463.5,1118.9,463.5,1118.7,463.5,1118.7L463.5,1118.7z M446.2,1122.7c0,0,1.4,0.3,2.1,0.5
			c1.1,0.3,3.4,1.1,3.4,1.1s-0.3,0.2-0.6,0.5c-1.3,1-2.5,2.1-3.9,3.5c-0.4,0.4-0.8,0.7-0.8,0.7v-0.1c0.2-1.6,0.2-3.7-0.1-5.8
			C446.2,1122.9,446.1,1122.7,446.2,1122.7z M474.1,1122.7c0,0-0.6,1-1,1.6c-0.6,0.8-1.4,1.9-3.3,4.3c-1,1.3-2.1,2.7-2.5,3.2
			s-0.7,0.9-0.7,0.9s-0.1-0.2-0.3-0.4c-1.1-1.6-2.4-3-3.9-4.3c-0.3-0.2-0.6-0.5-0.7-0.6s-0.2-0.2-0.2-0.2s1.6-0.7,2.9-1.2
			c2.2-0.9,5.1-1.9,7.3-2.6C472.9,1123.1,474.1,1122.7,474.1,1122.7L474.1,1122.7z M474.9,1122.9c0,0,0.3,0.1,0.5,0.3
			c2.3,1.3,4.6,3,6.4,4.8c0.5,0.5,1.8,1.8,1.7,1.8c0,0-0.4,0-1,0.1c-4,0.3-9.2,1.2-14.2,2.4c-0.3,0.1-0.6,0.1-0.7,0.1
			c0,0,0.4-0.4,0.8-0.8c2.9-2.8,4.2-4.6,5.8-7.7C474.7,1123.4,474.8,1123,474.9,1122.9L474.9,1122.9L474.9,1122.9z M453.5,1125.1
			c0.1,0,1.4,0.6,2.3,1.1c0.9,0.4,2.2,1.1,2.2,1.2c0,0-0.5,0.2-1,0.5c-1.8,0.9-3.3,1.8-5,2.7c-0.5,0.3-0.8,0.5-0.9,0.5
			c0,0,0,0,0.2-0.5c0.9-1.6,1.6-3.4,1.9-5.3C453.5,1125.2,453.5,1125.1,453.5,1125.1L453.5,1125.1z M452.3,1125.3
			c0,0-0.3,1.2-0.5,1.8c-0.4,1.2-1.1,2.7-1.7,3.9c-0.2,0.3-0.4,0.7-0.5,0.9l-0.2,0.4l-0.5-0.5c-0.6-0.6-1.1-1-1.8-1.3
			c-0.3-0.1-0.5-0.2-0.5-0.3c0-0.1,1.6-1.6,2.9-2.6C450.4,1126.8,452.3,1125.3,452.3,1125.3L452.3,1125.3z M459.9,1128.5l0.5,0.3
			c1.1,0.7,2.3,1.6,3.3,2.4c0.5,0.4,1.6,1.4,1.8,1.6l0.1,0.1l-0.8,0.2c-4.4,1.2-7.8,2.3-11.7,3.8c-0.4,0.2-0.8,0.3-0.8,0.3
			c-0.1,0-0.1,0,0.9-0.9c2.5-2.3,4.8-4.9,6.4-7.4L459.9,1128.5L459.9,1128.5z M457.9,1129c0,0-1.3,1.9-2.1,2.9
			c-0.9,1.2-2.6,3.3-3.8,4.7c-0.5,0.6-0.9,1-0.9,1s0-0.1,0-0.4c0-1.2-0.3-2.4-0.8-3.4c-0.2-0.4-0.3-0.5-0.2-0.6
			c0.2-0.2,3-1.8,4.7-2.7C456,1129.9,457.9,1128.9,457.9,1129L457.9,1129z M445.8,1131.9c0,0,0.2,0.1,0.5,0.2
			c0.6,0.3,1.2,0.7,1.6,1.1c0,0-0.2,0.2-0.6,0.5c-0.9,0.7-2.3,1.7-3.1,2.3c-0.8,0.7-0.9,0.7-0.8,0.5c0.6-1,0.9-1.5,1.3-2.2
			c0.3-0.6,0.6-1.4,0.8-2C445.7,1132.1,445.8,1131.9,445.8,1131.9L445.8,1131.9z M449,1134.5c0,0,0.1,0.1,0.4,0.5
			c0.5,0.8,1,1.9,1.1,2.8v0.2l-1.3,0.5c-2.3,0.9-4.5,1.8-6,2.5c-0.4,0.2-1.1,0.5-1.6,0.8c-0.5,0.2-0.9,0.4-0.9,0.4s0.3-0.2,0.7-0.5
			c2.9-2.1,5.3-4.4,7.2-6.6C448.8,1134.7,449,1134.5,449,1134.5L449,1134.5L449,1134.5z M447.5,1134.8c0,0-1.1,1.3-1.8,2
			c-1.8,1.9-3.7,3.4-5.9,4.8c-0.3,0.2-0.5,0.3-0.6,0.4c-0.1,0,0-0.1,1-1.1c0.6-0.7,1.1-1.3,1.7-2c0.4-0.5,0.4-0.5,1-0.9
			C444.3,1137,447.5,1134.8,447.5,1134.8z"/>
	</g>
	<g>
		<path class="st37" d="M484.7,540v66h-56v-66H484.7 M484.7,538h-56c-1.1,0-2,0.9-2,2v66c0,1.1,0.9,2,2,2h56c1.1,0,2-0.9,2-2v-66
			C486.7,538.9,485.8,538,484.7,538L484.7,538z"/>
	</g>
	<g>
		<path class="st37" d="M484.7,608h-56c-1.1,0-2-0.9-2-2v-18h60v18C486.7,607.1,485.8,608,484.7,608z"/>
	</g>
	<g>
		<path class="st3" d="M438.4,601.3v-7h1.4l2,2.9l2-2.9h1.4v7h-1.4v-4.8l-1.6,2.2h-0.8l-1.6-2.2v4.8H438.4z"/>
		<path class="st3" d="M446.6,600.7v-1.5c0.3,0.2,0.7,0.5,1.2,0.7s1,0.3,1.4,0.3c0.8,0,1.3-0.3,1.3-0.8c0-0.2-0.1-0.5-0.4-0.6
			c-0.1-0.1-0.2-0.1-0.4-0.2l-0.2-0.1l-0.6-0.2l-0.5-0.2c-0.1,0-0.3-0.1-0.5-0.2s-0.4-0.2-0.5-0.2c-0.2-0.1-0.5-0.4-0.7-0.6
			c-0.1-0.2-0.2-0.6-0.2-1c0-0.6,0.2-1.1,0.7-1.5s1.1-0.5,1.9-0.5s1.6,0.2,2.3,0.6v1.4c-0.7-0.4-1.5-0.7-2.3-0.7s-1.2,0.2-1.2,0.7
			c0,0.2,0.1,0.4,0.4,0.5c0.1,0.1,0.4,0.2,0.6,0.2s0.5,0.1,0.8,0.2c0.7,0.2,1,0.4,1.5,0.7s0.7,0.8,0.7,1.5s-0.3,1.2-0.8,1.6
			s-1.2,0.6-2,0.6S447.4,601.2,446.6,600.7z"/>
		<path class="st3" d="M455.7,600.7v-1.5c0.3,0.2,0.7,0.5,1.2,0.7s1,0.3,1.4,0.3c0.8,0,1.3-0.3,1.3-0.8c0-0.2-0.1-0.5-0.4-0.6
			c-0.1-0.1-0.2-0.1-0.4-0.2l-0.2-0.1l-0.6-0.2l-0.5-0.2c-0.1,0-0.3-0.1-0.5-0.2s-0.4-0.2-0.5-0.2c-0.2-0.1-0.5-0.4-0.7-0.6
			c-0.1-0.2-0.2-0.6-0.2-1c0-0.6,0.2-1.1,0.7-1.5s1.1-0.5,1.9-0.5s1.6,0.2,2.3,0.6v1.4c-0.7-0.4-1.5-0.7-2.3-0.7s-1.2,0.2-1.2,0.7
			c0,0.2,0.1,0.4,0.4,0.5c0.1,0.1,0.4,0.2,0.6,0.2s0.5,0.1,0.8,0.2c0.7,0.2,1,0.4,1.5,0.7s0.7,0.8,0.7,1.5s-0.3,1.2-0.8,1.6
			s-1.2,0.6-2,0.6C457.3,601.4,456.4,601.2,455.7,600.7z"/>
		<path class="st3" d="M463.1,600.3c-0.6-0.7-1-1.5-1-2.5s0.3-1.9,1-2.6c0.7-0.7,1.6-1.1,2.6-1.1s1.9,0.3,2.6,1.1
			c0.7,0.7,1,1.6,1,2.6c0,0.8-0.2,1.4-0.6,2s-0.9,1-1.6,1.3c0.3,0.3,0.6,0.5,1.1,0.5c0.3,0,0.6-0.1,0.8-0.2v1.2
			c-0.3,0.1-0.7,0.2-1.1,0.2c-0.8,0-1.6-0.5-2.5-1.5C464.5,601.4,463.7,601,463.1,600.3z M465.7,600.1c0.6,0,1.1-0.2,1.5-0.7
			c0.4-0.4,0.6-1,0.6-1.6c0-0.7-0.2-1.2-0.6-1.6c-0.4-0.4-0.9-0.7-1.5-0.7s-1.1,0.2-1.5,0.7c-0.4,0.4-0.6,1-0.6,1.6
			c0,0.7,0.2,1.2,0.6,1.6C464.6,599.9,465.1,600.1,465.7,600.1z"/>
		<path class="st3" d="M470.7,601.3v-7h1.4v5.7h3.5v1.3H470.7z"/>
	</g>
</g>
<g>
	<g>
		<path class="st38" d="M121.7,621.5v66h-56v-66H121.7 M121.7,619.5h-56c-1.1,0-2,0.9-2,2v66c0,1.1,0.9,2,2,2h56c1.1,0,2-0.9,2-2
			v-66C123.7,620.4,122.8,619.5,121.7,619.5L121.7,619.5z"/>
	</g>
	<g>
		<path class="st38" d="M121.7,690h-56c-1.1,0-2-0.9-2-2v-18h60v18C123.7,689.1,122.8,690,121.7,690z"/>
	</g>
	<g>
		<path class="st3" d="M77,682.8v-7h1.4l2,2.9l2-2.9h1.4v7h-1.4V678l-1.6,2.2H80l-1.6-2.2v4.8H77z"/>
		<path class="st3" d="M85.1,684.7v-1.2c0.2,0.1,0.5,0.2,0.8,0.2c0.5,0,0.8-0.3,1.1-1l-2.1-4.8h1.5l1.3,3.3l1.2-3.3h1.5l-2.3,5.5
			c-0.4,1-1.1,1.5-2,1.5C85.7,684.9,85.4,684.8,85.1,684.7z"/>
		<path class="st3" d="M91.1,682.2v-1.5c0.3,0.2,0.7,0.5,1.2,0.7s1,0.3,1.4,0.3c0.8,0,1.3-0.3,1.3-0.8c0-0.2-0.1-0.5-0.4-0.6
			c-0.1-0.1-0.2-0.1-0.4-0.2L94,680l-0.6-0.2l-0.5-0.2c-0.1,0-0.3-0.1-0.5-0.2s-0.4-0.2-0.5-0.2c-0.2-0.1-0.5-0.4-0.7-0.6
			c-0.1-0.2-0.2-0.6-0.2-1c0-0.6,0.2-1.1,0.7-1.5s1.1-0.5,1.9-0.5s1.6,0.2,2.3,0.6v1.4c-0.7-0.4-1.5-0.7-2.3-0.7s-1.2,0.2-1.2,0.7
			c0,0.2,0.1,0.4,0.4,0.5c0.1,0.1,0.4,0.2,0.6,0.2s0.5,0.1,0.8,0.2c0.7,0.2,1,0.4,1.5,0.7s0.7,0.8,0.7,1.5s-0.3,1.2-0.8,1.6
			s-1.2,0.6-2,0.6C92.7,682.9,91.8,682.7,91.1,682.2z"/>
		<path class="st3" d="M98.5,681.8c-0.6-0.7-1-1.5-1-2.5s0.3-1.9,1-2.6c0.7-0.7,1.6-1.1,2.6-1.1s1.9,0.3,2.6,1.1
			c0.7,0.7,1,1.6,1,2.6c0,0.8-0.2,1.4-0.6,2s-0.9,1-1.6,1.3c0.3,0.3,0.6,0.5,1.1,0.5c0.3,0,0.6-0.1,0.8-0.2v1.2
			c-0.3,0.1-0.7,0.2-1.1,0.2c-0.8,0-1.6-0.5-2.5-1.5C100,682.9,99.1,682.5,98.5,681.8z M101.1,681.6c0.6,0,1.1-0.2,1.5-0.7
			c0.4-0.4,0.6-1,0.6-1.6c0-0.7-0.2-1.2-0.6-1.6c-0.4-0.4-0.9-0.7-1.5-0.7s-1.1,0.2-1.5,0.7c-0.4,0.4-0.6,1-0.6,1.6
			c0,0.7,0.2,1.2,0.6,1.6C100,681.4,100.5,681.6,101.1,681.6z"/>
		<path class="st3" d="M106.2,682.8v-7h1.4v5.7h3.5v1.3H106.2z"/>
	</g>
	<g>
		<path class="st39" d="M111.1,663.9c-1.1-0.9-2.2-1.7-3.4-2.4l-1.7-1.1c-0.6-0.4-1.2-0.7-1.6-1.1c-0.1-0.1-0.2-0.2-0.3-0.3
			c0.1-0.1,0.4-0.2,0.7-0.2c0.6-0.1,1.3-0.2,1.9-0.2c1.3,0,2.6,0.2,4.1,0.2c0.2,0,0.4,0,0.6-0.1c0.1,0,0.2,0,0.4-0.1
			c0.1,0,0.2-0.1,0.3-0.2c0.1-0.1,0.2-0.3,0.2-0.5c0-0.3-0.1-0.5-0.2-0.6s-0.1-0.2-0.2-0.3c-0.2-0.2-0.3-0.3-0.4-0.4
			c-0.5-0.5-1-1-1.6-1.4c-1.1-0.9-2.4-1.5-3.7-2.1c-0.6-0.3-1.3-0.6-1.9-0.8s-1.2-0.5-1.8-0.8c-0.5-0.3-1-0.7-1.3-1.1
			c-0.3-0.4-0.4-1.1-0.7-1.8c-0.4-1.3-0.9-2.6-1.5-3.9c-1.2-2.5-2.6-4.9-4.4-7.1c-0.9-1.1-1.8-2.1-2.8-3.1s-2.1-1.8-3.3-2.6
			c-1.2-0.8-2.4-1.4-3.8-1.9c-0.7-0.2-1.4-0.4-2.1-0.5c-0.4,0-0.7-0.1-1.1-0.1c-0.3,0-0.6,0-0.9,0c-1-0.7-1.9-1.3-3-1.8
			c-0.6-0.3-1.2-0.5-1.8-0.7c-0.3-0.1-0.7-0.1-1.1-0.1c-0.2,0-0.4,0.1-0.7,0.2c-0.2,0.1-0.5,0.4-0.5,0.7c-0.1,0.6,0,0.9,0.2,1.2
			c0.1,0.3,0.3,0.6,0.5,0.9c0.3,0.5,0.7,1,1.1,1.5c0.7,0.9,1.5,1.9,1.9,2.9c0.5,1,0.6,2.2,0.9,3.3c0.1,0.6,0.3,1.3,0.6,1.9
			c0.3,0.6,0.7,1.2,1.2,1.6c0.2,0.2,0.5,0.4,0.6,0.6c0.1,0.1,0.1,0.1,0.1,0.1s0,0,0,0.1l-0.5,1.8c-0.3,1.2-0.5,2.4-0.7,3.6
			c-0.1,1.2-0.1,2.5,0.2,3.8c0.1,0.6,0.3,1.2,0.6,1.8c0.1,0.3,0.3,0.6,0.5,0.9c0.1,0.1,0.1,0.2,0.3,0.3c0.1,0,0.1,0.1,0.3,0.1
			c0.1,0,0.3,0.1,0.5,0c0.4-0.1,0.5-0.4,0.5-0.5c0.1-0.1,0.1-0.2,0.1-0.3c0-0.2,0-0.4,0-0.5s0-0.3,0-0.4c0-0.3,0.1-0.6,0.1-0.8
			c0.1-0.6,0.2-1.1,0.4-1.7c0.2-0.6,0.4-1.1,0.6-1.6c0.1-0.1,0.1-0.3,0.2-0.4c0,0.2,0,0.3,0,0.5c0.1,0.7,0.3,1.3,0.5,1.9
			c0.5,1.2,1.1,2.2,1.8,3.2c1.4,2,3,3.8,4.8,5.4c-1.6-1.8-3.1-3.7-4.3-5.7c-0.6-1-1.2-2.1-1.5-3.2c-0.2-0.5-0.3-1.1-0.3-1.6
			c0-0.2,0-0.6,0-0.9c0-0.2,0-0.3-0.1-0.5c0-0.1,0-0.2-0.1-0.3s-0.1-0.3-0.5-0.5c-0.2-0.1-0.4,0-0.5,0s-0.2,0.1-0.2,0.1
			c-0.1,0.1-0.2,0.2-0.3,0.3c-0.1,0.2-0.2,0.3-0.3,0.4c-0.2,0.3-0.3,0.6-0.4,0.9c-0.2,0.6-0.4,1.2-0.6,1.8s-0.3,1.2-0.4,1.8
			c0,0.3-0.1,0.5-0.1,0.8c-0.2-0.4-0.3-0.9-0.4-1.4c-0.2-1.1-0.3-2.3-0.2-3.4c0.1-1.2,0.3-2.3,0.6-3.5l0.5-1.7c0-0.1,0.1-0.5,0-0.7
			c-0.1-0.3-0.2-0.5-0.4-0.6c-0.3-0.3-0.5-0.5-0.7-0.7c-0.8-0.8-1.2-1.7-1.4-2.8c-0.2-1.2-0.4-2.4-0.9-3.6c-0.6-1.2-1.3-2.2-2.1-3.1
			c-0.4-0.5-0.7-0.9-1-1.4c-0.1-0.2-0.3-0.5-0.4-0.7s-0.1-0.4-0.1-0.5c0,0,0.1,0,0.2-0.1c0.2,0,0.4,0,0.7,0c0.5,0.1,1,0.3,1.6,0.6
			c1,0.5,2,1.1,3,1.8l0.2,0.1h0.3c0.2,0,0.6,0,0.9,0s0.6,0,1,0.1c0.6,0.1,1.3,0.3,1.9,0.5c1.2,0.4,2.4,1,3.5,1.7s2.2,1.5,3.1,2.5
			c1,0.9,1.9,1.9,2.7,2.9c1.7,2.1,3.1,4.4,4.2,6.8c0.6,1.2,1.1,2.5,1.5,3.7l0.3,1c0.1,0.3,0.2,0.7,0.5,1.1c0.4,0.7,1.1,1.2,1.7,1.6
			c0.6,0.4,1.3,0.6,1.9,0.9c0.6,0.2,1.2,0.5,1.8,0.8c1.2,0.6,2.4,1.2,3.4,2c0.5,0.4,1,0.8,1.5,1.3l0.1,0.1c-0.6,0-1.3-0.1-2-0.1
			s-1.4,0-2.1,0c-0.7,0.1-1.4,0.1-2.1,0.4c-0.2,0.1-0.4,0.1-0.5,0.2c-0.2,0.1-0.4,0.1-0.6,0.4c-0.1,0.1-0.2,0.3-0.2,0.5
			s0.1,0.3,0.2,0.4c0.1,0.2,0.3,0.3,0.4,0.5c0.6,0.5,1.2,0.8,1.8,1.1l1.8,1c1.2,0.7,2.4,1.4,3.5,2.2s2.1,1.7,2.9,2.8
			C113.1,665.8,112.2,664.8,111.1,663.9z M83.6,647.3L83.6,647.3L83.6,647.3z M80.6,642.1L80.6,642.1L80.6,642.1z M111.1,658
			C111.2,658,111.2,658,111.1,658L111.1,658z M104.1,659L104.1,659L104.1,659z"/>
		<path class="st39" d="M80.5,633.2c0,0,1,0.9,1.3,2.2s1.5-0.9,0.4-1.8C81.3,632.8,80.5,633.2,80.5,633.2z"/>
	</g>
</g>
<g>
	<g>
		<path class="st40" d="M190.9,495.1l-1.1-0.4c0,0,0.1-5.4-1.8-5.8c-1.3-1.5,0.2-63.9,4.9-0.2c0,0-1.6,0.8-1.9,2.2
			C190.7,492.2,190.9,495.1,190.9,495.1L190.9,495.1z"/>
		<path class="st41" d="M191.5,489.8c0,0,9.3-6.1,7.1-18.9c-2.1-9.3-7.1-12.3-7.6-13.5c-0.6-0.8-1.2-2.3-1.2-2.3l-0.6,25.8
			C189.2,481,189.4,488.9,191.5,489.8"/>
		<path class="st42" d="M189.3,490.2c0,0-8.8-6-8.2-16.5c0.5-10.5,6.7-15.7,7.9-16.6c0.8-0.8,0.8-1.1,0.9-2
			c0.5,1.2,0.4,17.5,0.5,19.4C190.5,481.9,189.9,488.8,189.3,490.2z"/>
	</g>
	<g>
		<path class="st43" d="M218,451v66h-56v-66H218 M218,449h-56c-1.1,0-2,0.9-2,2v66c0,1.1,0.9,2,2,2h56c1.1,0,2-0.9,2-2v-66
			C220,449.9,219.1,449,218,449L218,449z"/>
	</g>
	<path class="st43" d="M218,519h-56c-1.1,0-2-0.9-2-2v-18h60v18C220,518.1,219.1,519,218,519z"/>
	<g>
		<path class="st3" d="M166.2,512.3v-7h1.4l2,2.9l2-2.9h1.4v7h-1.4v-4.8l-1.6,2.2h-0.8l-1.6-2.2v4.8H166.2z"/>
		<path class="st3" d="M175.1,507.9c0.5-0.5,1.2-0.8,2-0.8s1.5,0.2,2,0.8s0.8,1.1,0.8,1.9s-0.3,1.4-0.8,1.9c-0.5,0.5-1.2,0.8-2,0.8
			s-1.5-0.2-2-0.8c-0.5-0.5-0.8-1.1-0.8-1.9C174.3,509.1,174.6,508.4,175.1,507.9z M177.1,511.2c0.4,0,0.7-0.1,1-0.4s0.4-0.6,0.4-1
			s-0.1-0.7-0.4-1c-0.3-0.3-0.6-0.4-1-0.4s-0.7,0.1-1,0.4s-0.4,0.6-0.4,1s0.1,0.7,0.4,1S176.7,511.2,177.1,511.2z"/>
		<path class="st3" d="M182.4,512.3H181v-5h1.4v0.6c0.5-0.5,1-0.7,1.7-0.7c1.2,0,1.8,0.8,1.8,2.1v3.1h-1.4v-2.8
			c0-0.8-0.4-1.1-0.9-1.1c-0.4,0-0.9,0.3-1.1,0.6v3.2H182.4z"/>
		<path class="st3" d="M190.9,507.3h1.4v4.4c0,1.8-1.5,2.6-2.9,2.6c-0.8,0-1.5-0.1-2-0.4v-1.3c0.5,0.3,1.1,0.5,1.8,0.5
			c0.8,0,1.6-0.3,1.6-1.3v-0.3c-0.4,0.5-0.9,0.7-1.6,0.7c-0.7,0-1.2-0.2-1.7-0.7c-0.4-0.5-0.7-1.1-0.7-1.8c0-0.7,0.2-1.3,0.7-1.8
			s1-0.7,1.7-0.7s1.3,0.2,1.6,0.7L190.9,507.3L190.9,507.3z M190.9,510.3v-1.2c-0.2-0.4-0.7-0.7-1.2-0.7c-0.8,0-1.3,0.5-1.3,1.3
			s0.6,1.3,1.3,1.3C190.3,511,190.7,510.7,190.9,510.3z"/>
		<path class="st3" d="M194.2,507.9c0.5-0.5,1.2-0.8,2-0.8s1.5,0.2,2,0.8s0.8,1.1,0.8,1.9s-0.3,1.4-0.8,1.9c-0.5,0.5-1.2,0.8-2,0.8
			s-1.5-0.2-2-0.8c-0.5-0.5-0.8-1.1-0.8-1.9C193.5,509.1,193.7,508.4,194.2,507.9z M196.2,511.2c0.4,0,0.7-0.1,1-0.4s0.4-0.6,0.4-1
			s-0.1-0.7-0.4-1c-0.3-0.3-0.6-0.4-1-0.4s-0.7,0.1-1,0.4s-0.4,0.6-0.4,1s0.1,0.7,0.4,1S195.8,511.2,196.2,511.2z"/>
		<path class="st3" d="M200.2,512.3v-7h2.6c1.1,0,2.1,0.3,2.8,1s1.1,1.5,1.1,2.5s-0.4,1.9-1.1,2.5s-1.6,1-2.8,1H200.2z M201.7,511
			h1.1c1.6,0,2.5-0.8,2.5-2.2s-0.9-2.2-2.5-2.2h-1.1V511z"/>
		<path class="st3" d="M208.1,512.3v-7h3.3c1.3,0,2.1,0.6,2.1,1.7c0,0.7-0.4,1.2-0.9,1.4c0.4,0.1,0.7,0.3,1,0.6s0.4,0.7,0.4,1.2
			c0,0.6-0.2,1.1-0.7,1.4s-1,0.5-1.8,0.5h-3.4L208.1,512.3L208.1,512.3z M209.5,508h1.6c0.6,0,1-0.3,1-0.8s-0.4-0.8-1-0.8h-1.6V508z
			 M209.5,511.1h1.8c0.7,0,1.1-0.3,1.1-0.9s-0.4-0.9-1.1-0.9h-1.8V511.1z"/>
	</g>
</g>
<g id="JT97Uo.tif_1_" class="st44">
	
		<image style="display:inline;overflow:visible;enable-background:new    ;" width="3540" height="1832" id="Layer_0_4_" xlink:href="D732B7A22B2A99E3.png"  transform="matrix(0.4995 0 0 0.4995 -1861.0338 -27.5)">
	</image>
</g>
<g>
	<g>
		<path class="st45" d="M322.7,611v66h-62v-66H322.7 M322.7,609h-62c-1.1,0-2,0.9-2,2v66c0,1.1,0.9,2,2,2h62c1.1,0,2-0.9,2-2v-66
			C324.7,609.9,323.8,609,322.7,609L322.7,609z"/>
		<path class="st45" d="M322.7,679h-62c-1.1,0-2-0.9-2-2v-18h66v18C324.7,678.1,323.8,679,322.7,679z"/>
	</g>
	<g>
		<path class="st3" d="M262.8,672.3v-7h3.1c0.7,0,1.3,0.2,1.8,0.6c0.4,0.4,0.7,0.9,0.7,1.5c0,0.6-0.2,1.1-0.7,1.5
			c-0.4,0.4-1,0.6-1.8,0.6h-1.6v2.8H262.8z M264.2,668.3h1.5c0.7,0,1.1-0.3,1.1-0.9s-0.4-0.9-1.1-0.9h-1.5V668.3z"/>
		<path class="st3" d="M269.5,667.9c0.5-0.5,1.2-0.8,2-0.8s1.5,0.2,2,0.8s0.8,1.1,0.8,1.9c0,0.8-0.3,1.4-0.8,1.9
			c-0.5,0.5-1.2,0.8-2,0.8s-1.5-0.2-2-0.8c-0.5-0.5-0.8-1.1-0.8-1.9C268.8,669.1,269,668.4,269.5,667.9z M271.5,671.2
			c0.4,0,0.7-0.1,1-0.4c0.3-0.3,0.4-0.6,0.4-1c0-0.4-0.1-0.7-0.4-1c-0.3-0.3-0.6-0.4-1-0.4c-0.4,0-0.7,0.1-1,0.4
			c-0.3,0.3-0.4,0.6-0.4,1c0,0.4,0.1,0.7,0.4,1S271.1,671.2,271.5,671.2z"/>
		<path class="st3" d="M275.2,672v-1.2c0.4,0.3,1.2,0.6,2,0.6c0.6,0,0.9-0.1,0.9-0.4c0-0.1-0.1-0.2-0.2-0.3c-0.1,0-0.2-0.1-0.3-0.1
			l-0.4-0.1c-0.2,0-0.3-0.1-0.4-0.1c-1.1-0.3-1.6-0.7-1.6-1.5c0-0.9,0.8-1.5,2.2-1.5c0.7,0,1.4,0.2,1.9,0.5v1.2
			c-0.6-0.3-1.2-0.5-1.8-0.5c-0.5,0-0.8,0.1-0.8,0.4c0,0.2,0.1,0.2,0.3,0.3c0.1,0,0.3,0.1,0.4,0.1l0.5,0.1c1.1,0.2,1.6,0.7,1.6,1.6
			c0,0.5-0.2,0.8-0.6,1.1c-0.4,0.3-0.9,0.4-1.6,0.4C276.4,672.4,275.7,672.3,275.2,672z"/>
		<path class="st3" d="M281.1,668.5h-1v-1.2h1v-1.4h1.4v1.4h1.4v1.2h-1.4v2c0,0.5,0.2,0.7,0.7,0.7c0.2,0,0.5-0.1,0.7-0.2v1.2
			c-0.3,0.2-0.7,0.3-1.2,0.3c-1.1,0-1.6-0.6-1.6-1.7V668.5z"/>
		<path class="st3" d="M288.8,667.3h1.4v4.4c0,1.8-1.5,2.6-2.9,2.6c-0.8,0-1.5-0.1-2-0.4v-1.3c0.5,0.3,1.1,0.5,1.8,0.5
			c0.8,0,1.6-0.3,1.6-1.3v-0.3c-0.4,0.5-0.9,0.7-1.6,0.7c-0.7,0-1.2-0.2-1.7-0.7c-0.4-0.5-0.7-1.1-0.7-1.8c0-0.7,0.2-1.3,0.7-1.8
			s1-0.7,1.7-0.7c0.7,0,1.3,0.2,1.6,0.7V667.3z M288.8,670.3v-1.2c-0.2-0.4-0.7-0.7-1.2-0.7c-0.8,0-1.3,0.5-1.3,1.3s0.5,1.3,1.3,1.3
			C288.1,671,288.6,670.7,288.8,670.3z"/>
		<path class="st3" d="M291.7,672.3v-5h1.4v0.8c0.2-0.3,0.4-0.5,0.7-0.7c0.3-0.2,0.7-0.3,1-0.3c0.1,0,0.1,0,0.2,0v1.4
			c-0.1,0-0.3-0.1-0.4-0.1c-0.7,0-1.3,0.4-1.5,0.9v2.9H291.7z"/>
		<path class="st3" d="M296.5,671.7c-0.5-0.5-0.8-1.1-0.8-1.9c0-0.7,0.2-1.4,0.7-1.9c0.5-0.5,1.1-0.8,1.9-0.8c0.7,0,1.3,0.3,1.7,0.8
			s0.6,1.1,0.6,1.9v0.4h-3.6c0.2,0.7,0.8,1,1.7,1c0.6,0,1.1-0.2,1.6-0.4v1.1c-0.5,0.3-1.1,0.5-1.9,0.5
			C297.6,672.4,297,672.2,296.5,671.7z M299.2,669.3c0-0.5-0.4-1-1-1c-0.6,0-1.1,0.4-1.1,1H299.2z"/>
		<path class="st3" d="M301.6,671.7v-1.5c0.3,0.2,0.7,0.5,1.2,0.7c0.5,0.2,1,0.3,1.4,0.3c0.8,0,1.3-0.3,1.3-0.8
			c0-0.2-0.1-0.5-0.4-0.6c-0.1-0.1-0.2-0.1-0.4-0.2l-0.2-0.1l-0.6-0.2l-0.5-0.2c-0.1,0-0.3-0.1-0.5-0.2s-0.4-0.2-0.5-0.2
			c-0.2-0.1-0.5-0.4-0.7-0.6c-0.1-0.2-0.2-0.6-0.2-1c0-0.6,0.2-1.1,0.7-1.5c0.5-0.4,1.1-0.5,1.9-0.5s1.6,0.2,2.3,0.6v1.4
			c-0.7-0.4-1.5-0.7-2.3-0.7c-0.8,0-1.2,0.2-1.2,0.7c0,0.2,0.1,0.4,0.4,0.5c0.1,0.1,0.4,0.2,0.6,0.2c0.2,0,0.5,0.1,0.8,0.2
			c0.7,0.2,1,0.4,1.5,0.7s0.7,0.8,0.7,1.5c0,0.7-0.3,1.2-0.8,1.6s-1.2,0.6-2,0.6C303.2,672.4,302.3,672.2,301.6,671.7z"/>
		<path class="st3" d="M308.9,671.3c-0.6-0.7-1-1.5-1-2.5c0-1,0.3-1.9,1-2.6c0.7-0.7,1.6-1.1,2.6-1.1c1,0,1.9,0.3,2.6,1.1
			c0.7,0.7,1,1.6,1,2.6c0,0.8-0.2,1.4-0.6,2c-0.4,0.6-0.9,1-1.6,1.3c0.3,0.3,0.6,0.5,1.1,0.5c0.3,0,0.6-0.1,0.8-0.2v1.2
			c-0.3,0.1-0.7,0.2-1.1,0.2c-0.8,0-1.6-0.5-2.5-1.5C310.4,672.4,309.6,672,308.9,671.3z M311.6,671.1c0.6,0,1.1-0.2,1.5-0.7
			c0.4-0.4,0.6-1,0.6-1.6c0-0.7-0.2-1.2-0.6-1.6c-0.4-0.4-0.9-0.7-1.5-0.7c-0.6,0-1.1,0.2-1.5,0.7c-0.4,0.4-0.6,1-0.6,1.6
			c0,0.7,0.2,1.2,0.6,1.6C310.4,670.9,311,671.1,311.6,671.1z"/>
		<path class="st3" d="M316.6,672.3v-7h1.4v5.7h3.5v1.3H316.6z"/>
	</g>
	<g>
		<path class="st46" d="M300.8,644.7c0-0.1,0-0.1,0-0.3c0-0.1,0-0.1,0-0.2l0.3,0h0.1c0.6,0,1.4,0,2.1-0.1c0.7-0.1,1.4-0.3,1.9-0.6
			c1.1-0.5,2-1.2,2.4-1.8c0.3-0.4,0.4-0.7,0.4-1.1c0.1-0.8-0.3-1.3-1-1.7c-0.4-0.2-1-0.3-1.7-0.1c-0.9,0.2-1.5,0.3-1.9,0.4
			c1.7-2.8,2.9-5.8,3.7-8.5c1-3.7,1-6.9-0.1-8.3c-1.7-2.1-3.7-3.2-5.8-3.7c-3-0.7-5.9-0.1-7.2,0.3c-0.3-0.1-0.7-0.1-1.1-0.2
			c-0.5-0.1-1-0.1-1.6-0.1c-1,0-2,0.1-2.8,0.4c-0.6,0.2-1.2,0.4-1.7,0.8c-3.1-1-14.4-4-13.7,8.5c0.1,1.5,1.3,7.6,3,11.8
			c0.6,1.5,1.3,2.7,2.1,3.6c1.1,1.2,2.3,1.7,3.7,1.2c0.4-0.1,0.8-0.3,1.1-0.6c0.1,0.1,0.1,0.1,0.2,0.2c0.4,0.4,1.1,0.7,1.7,0.8
			c0.6,0.2,1.7,0.4,2.9,0.2c0.4-0.1,0.9-0.2,1.4-0.4c0,0.2,0,0.4,0,0.6c0,0.3,0,0.6,0,0.8c0,0.8,0.1,1.5,0.2,2.3
			c0.1,0.8,0.2,1.4,0.4,2c0,0.1,0.1,0.1,0.1,0.2c0.5,1.4,1.3,3.9,5.2,3.1c1.5-0.3,2.9-0.7,4-2.3
			C300.1,650.6,300.7,648.4,300.8,644.7L300.8,644.7z"/>
		<path class="st47" d="M299.3,642c0,0.6-0.2,2.2-0.4,3.7c-0.2,1.3-0.3,2.5-0.5,3.3c-0.2,1-0.4,1.7-0.9,2.2
			c-0.5,0.5-1.2,0.8-2.3,1.1c-1.3,0.3-2,0-2.6-0.4c-0.5-0.4-0.8-1.1-1-1.5c-0.2-0.4-0.3-1.5-0.4-3c-0.1-1.5-0.1-3.3,0-5.2
			c0-0.4,0-0.8-0.1-1.2c-0.2-0.4-0.4-0.8-0.8-1c-0.3-0.2-0.8-0.4-1.1-0.3c-0.1,0-0.1,0-0.2,0c0.1-0.3,0.2-0.5,0.3-0.8
			c0.3-0.8,0.1-0.4,0.6-1.4c0.6-1.4,1.4-3.2,0.5-7.4c-0.3-1.2-0.9-1.8-1.7-2c-0.5-0.2-1.1-0.2-1.7-0.1c-0.6,0.1-1.1,0.3-1.6,0.5
			c-0.3,0.1-0.6,0.3-0.9,0.5c0.2-2.4,1.3-8.2,7.1-8.1c4.8,0.1,7.5,3.2,8.8,5.5c0.3,0.6,0.5,1.1,0.7,1.5c0,0,0,0.1,0,0.1
			c-2.8-0.3-4,0.7-4.2,2.2c-0.3,2.1,1.4,5.2,2.2,6.7c0.2,0.4,0.4,0.6,0.4,0.8c0.3,0.8,0.8,1.4,1.1,1.8c0.1,0.1,0.2,0.3,0.3,0.3
			C300.1,639.7,299.2,640.1,299.3,642L299.3,642z M285.6,642.9c-0.3,0.1-0.6,0.1-0.7,0.2c0.2,0.1,0.4,0.2,0.7,0.3
			c0.5,0.1,1.3,0.3,2.1,0.1c0.8-0.1,1.7-0.6,2.4-1.6c0.1-0.2,0.1-0.5,0-0.7c-0.1-0.2-0.2-0.4-0.4-0.5c-0.1-0.1-0.3-0.2-0.5-0.2
			c-0.1,0-0.1,0-0.2,0.1c-0.3,0.3-0.5,0.5-0.7,0.8C287.7,642.3,287.5,642.5,285.6,642.9L285.6,642.9z M285.1,639.3
			c-0.5,0.5-1.6,1.7-2.7,3.1c-0.3,0.4-0.6,0.6-0.9,0.7c-0.5,0.2-1-0.1-1.6-0.7c-0.6-0.7-1.2-1.8-1.7-3c-1.7-4-2.8-9.7-2.9-11.1
			c-0.5-9.6,8.3-7.5,11-6.6c-3,2.9-2.9,8.2-2.9,8.3c0,0.1,0,0.3,0,0.5c0.1,0.8,0.1,2.4-0.1,4.1c-0.1,0.4-0.1,0.9,0,1.3
			c0.1,1.2,0.6,2.2,1.3,3C284.8,639,284.9,639.1,285.1,639.3L285.1,639.3z M295.7,620.6c1.3-0.3,3.4-0.5,5.6,0.1
			c1.5,0.4,3,1.3,4.2,2.9c0.7,0.9,0.6,3.5-0.3,6.6c-0.7,2.7-2,5.8-3.8,8.6c0,0-0.1-0.1-0.1-0.2c0,0,0,0-0.1-0.1
			c1-1.7,0.8-3.3,0.7-4.9c-0.1-0.6-0.1-1.2-0.1-1.7c0-0.6,0.1-1.1,0.2-1.6c0.1-0.6,0.2-1.2,0.2-1.9c0,0,0,0,0-0.1c0-0.2,0-0.6-0.2-1
			c-0.2-0.4-0.4-1-0.7-1.6C300.2,624,298.5,621.8,295.7,620.6L295.7,620.6z M284.4,629.9c0,0,0.6-0.3,1.3-0.6
			c0.4-0.2,0.9-0.3,1.4-0.4c0.4-0.1,0.9-0.1,1.2,0.1c0.5,0.2,0.9,0.5,1,1.3c0.8,3.8,0.1,5.5-0.5,6.7c-0.4,0.8-0.4,1-0.6,1.4
			c-0.1,0.3-0.2,0.7-0.3,1c-0.2,0-0.3,0-0.5,0c-0.8-0.1-1.6-0.5-2.2-1.2c-0.6-0.6-1-1.5-1.1-2.4c0-0.3,0-0.7,0-1.1
			c0.3-1.9,0.2-3.5,0.1-4.3C284.4,630.2,284.4,630,284.4,629.9L284.4,629.9z M287.4,629.5c-0.3,0.1-0.4,0.2-0.4,0.3
			c0,0.2,0.1,0.3,0.2,0.5c0.2,0.2,0.4,0.3,0.6,0.3l0,0h0l0,0l0,0c0.3,0,0.5-0.1,0.7-0.2c0.2-0.1,0.3-0.3,0.3-0.4l0,0l0,0l0,0l0,0
			c0-0.2-0.1-0.3-0.3-0.4C288.3,629.4,287.8,629.4,287.4,629.5L287.4,629.5z M301.1,628.8c0,0.5-0.1,1-0.2,1.4
			c-0.1,0.5-0.2,1-0.2,1.7c0,0.6,0.1,1.2,0.1,1.9c0.2,1.2,0.3,2.6-0.3,3.8c-0.1-0.2-0.2-0.3-0.3-0.5c-0.1-0.2-0.2-0.5-0.5-0.9
			c-0.8-1.5-2.4-4.3-2.1-6.1C297.9,629.1,298.8,628.5,301.1,628.8L301.1,628.8z M301.4,640.4c1.2,0.9,3.2,0.5,4.5,0.3
			c-0.3,0.3-0.8,0.6-1.4,0.9c-0.6,0.3-1.5,0.5-2.4,0.5c-0.5,0-1,0-1.3-0.1c-0.2,0-0.4-0.1-0.4-0.1c-0.1-1.2,0.5-1.3,0.8-1.4
			C301.2,640.5,301.3,640.5,301.4,640.4L301.4,640.4z M300.1,629.5c0-0.1-0.1-0.2-0.3-0.3c-0.2,0-0.4,0-0.6,0
			c-0.2,0-0.4,0.1-0.6,0.2c-0.2,0.1-0.2,0.2-0.2,0.3c0,0.2,0.2,0.3,0.4,0.4c0.2,0.1,0.4,0.1,0.5,0.1c0.2,0,0.4-0.1,0.6-0.3
			C300.1,629.7,300.2,629.6,300.1,629.5L300.1,629.5L300.1,629.5L300.1,629.5z M302,639.7c2-3,3.4-6.4,4.2-9.3
			c0.9-3.4,1-6.3,0.1-7.4c-1.4-1.8-3.1-2.7-4.7-3.2c-2.5-0.7-5-0.4-6.4-0.1c-0.1,0-0.2,0-0.3,0.1c0,0-0.5,0.2-0.9,0.3
			c-0.8-0.2-1.6-0.3-2.5-0.3c-1.8,0-3.3,0.4-4.4,1.2c-1.9-0.7-13.5-4.5-12.9,7.4c0.1,1.4,1.2,7.4,3,11.5c0.6,1.4,1.2,2.5,1.9,3.3
			c0.8,0.9,1.7,1.3,2.6,0.9c0.5-0.2,0.9-0.5,1.3-1c1.2-1.5,2.4-2.7,2.8-3.1c0.5,0.3,1,0.4,1.5,0.5c0.2,0,0.3,0,0.5,0c0,0,0,0,0,0.1
			c-0.1,0.1-0.2,0.3-0.4,0.4c-0.4,0.6-0.6,0.7-2.1,1.1c-0.7,0.1-1.1,0.3-1.3,0.6c-0.2,0.2-0.3,0.5-0.3,0.7c0,0.2,0.2,0.4,0.3,0.6
			c0.3,0.3,0.8,0.5,1.2,0.6c0.6,0.1,1.5,0.3,2.5,0.1c0.8-0.1,1.6-0.5,2.3-1.1c0,1.4,0,2.8,0.1,3.9c0.1,1.6,0.2,2.8,0.4,3.4
			c0.2,0.5,0.6,1.3,1.3,1.9c0.7,0.6,1.8,1,3.4,0.6c1.3-0.3,2.2-0.7,2.9-1.4c0.6-0.7,1-1.6,1.2-2.8c0.1-0.7,0.3-2,0.5-3.3
			c0.1-1,0.3-2.1,0.3-2.8c0.1,0,0.2,0.1,0.3,0.1c0.4,0.1,1,0.1,1.6,0.1c1-0.1,2.1-0.3,2.8-0.6c0.9-0.4,1.7-1,2.1-1.5
			c0.1-0.2,0.2-0.4,0.2-0.6c0-0.3-0.1-0.6-0.4-0.7c-0.2-0.1-0.6-0.1-1.1,0C303,640.3,302.2,639.9,302,639.7L302,639.7z"/>
	</g>
</g>
<g>
	<path d="M495.8,243.1H488l-1.5,3.6h-4l7.5-16.8h3.8l7.5,16.8h-4.1L495.8,243.1z M494.6,240.2l-2.7-6.4l-2.7,6.4H494.6z"/>
	<path d="M502.8,228.9h3.7v17.8h-3.7V228.9z"/>
	<path d="M510.1,228.9h3.7v17.8h-3.7V228.9z"/>
	<path d="M516.8,238.5h6.8v3h-6.8V238.5z"/>
	<path d="M526.8,231.4c-0.4-0.4-0.6-0.9-0.6-1.5s0.2-1.1,0.6-1.5c0.4-0.4,1-0.6,1.7-0.6c0.7,0,1.2,0.2,1.7,0.6
		c0.4,0.4,0.6,0.9,0.6,1.4c0,0.6-0.2,1.1-0.6,1.5c-0.4,0.4-1,0.6-1.7,0.6C527.7,232,527.2,231.8,526.8,231.4z M526.6,233.8h3.7v12.9
		h-3.7V233.8z"/>
	<path d="M545.5,235.1c1,1,1.5,2.4,1.5,4.3v7.4h-3.7v-6.8c0-1-0.2-1.8-0.7-2.3c-0.4-0.5-1.1-0.8-1.9-0.8c-0.9,0-1.7,0.3-2.3,0.9
		s-0.8,1.5-0.8,2.6v6.4h-3.7v-12.9h3.6v1.5c0.5-0.5,1.1-1,1.8-1.3c0.7-0.3,1.5-0.4,2.4-0.4C543.2,233.6,544.5,234.1,545.5,235.1z"/>
	<path d="M549.9,238.5h6.8v3h-6.8V238.5z"/>
	<path d="M563.4,245.9c-1.4-0.8-2.5-1.8-3.3-3.1c-0.8-1.3-1.2-2.8-1.2-4.5s0.4-3.1,1.2-4.5s1.9-2.4,3.3-3.1c1.4-0.8,3-1.1,4.7-1.1
		c1.7,0,3.3,0.4,4.7,1.1c1.4,0.8,2.5,1.8,3.3,3.1c0.8,1.3,1.2,2.8,1.2,4.5s-0.4,3.1-1.2,4.5c-0.8,1.3-1.9,2.4-3.3,3.1
		s-3,1.1-4.7,1.1C566.4,247,564.8,246.6,563.4,245.9z M570.8,243c0.8-0.5,1.4-1.1,1.9-1.9c0.5-0.8,0.7-1.7,0.7-2.8s-0.2-2-0.7-2.8
		c-0.5-0.8-1.1-1.5-1.9-1.9c-0.8-0.5-1.7-0.7-2.7-0.7s-1.9,0.2-2.7,0.7c-0.8,0.5-1.4,1.1-1.9,1.9s-0.7,1.7-0.7,2.8s0.2,2,0.7,2.8
		c0.5,0.8,1.1,1.5,1.9,1.9c0.8,0.5,1.7,0.7,2.7,0.7S570,243.5,570.8,243z"/>
	<path d="M591.7,235.1c1,1,1.5,2.4,1.5,4.3v7.4h-3.7v-6.8c0-1-0.2-1.8-0.7-2.3c-0.4-0.5-1.1-0.8-1.9-0.8c-0.9,0-1.7,0.3-2.3,0.9
		s-0.8,1.5-0.8,2.6v6.4H580v-12.9h3.6v1.5c0.5-0.5,1.1-1,1.8-1.3c0.7-0.3,1.5-0.4,2.4-0.4C589.4,233.6,590.7,234.1,591.7,235.1z"/>
	<path d="M609.3,241.3h-9.8c0.2,0.8,0.6,1.4,1.2,1.9c0.7,0.5,1.5,0.7,2.4,0.7c0.7,0,1.3-0.1,1.8-0.3c0.5-0.2,1-0.5,1.5-0.9l2,2.2
		c-1.2,1.4-3,2.1-5.3,2.1c-1.5,0-2.7-0.3-3.9-0.9c-1.1-0.6-2-1.4-2.6-2.4c-0.6-1-0.9-2.2-0.9-3.4c0-1.3,0.3-2.4,0.9-3.4
		s1.4-1.8,2.5-2.4c1-0.6,2.2-0.9,3.5-0.9c1.3,0,2.4,0.3,3.4,0.8c1,0.5,1.8,1.3,2.4,2.3c0.6,1,0.9,2.2,0.9,3.5
		C609.4,240.4,609.3,240.7,609.3,241.3z M600.5,237.2c-0.6,0.5-0.9,1.1-1.1,2h6.4c-0.1-0.8-0.5-1.5-1.1-2c-0.6-0.5-1.3-0.7-2.1-0.7
		C601.8,236.4,601.1,236.7,600.5,237.2z"/>
	<path d="M619.8,246.5c-1-0.3-1.8-0.6-2.4-1l1.2-2.7c0.6,0.4,1.3,0.7,2.1,0.9c0.8,0.2,1.6,0.3,2.4,0.3c1.6,0,2.4-0.4,2.4-1.2
		c0-0.4-0.2-0.6-0.6-0.8c-0.4-0.2-1.1-0.3-2-0.4c-1.1-0.2-1.9-0.3-2.6-0.6c-0.7-0.2-1.3-0.6-1.8-1.1c-0.5-0.5-0.8-1.3-0.8-2.3
		c0-0.8,0.2-1.5,0.7-2.2c0.5-0.6,1.2-1.1,2.1-1.5c0.9-0.4,2-0.5,3.2-0.5c0.9,0,1.8,0.1,2.7,0.3c0.9,0.2,1.7,0.5,2.2,0.8l-1.2,2.7
		c-1.1-0.6-2.4-1-3.7-1c-0.8,0-1.4,0.1-1.8,0.3c-0.4,0.2-0.6,0.5-0.6,0.9c0,0.4,0.2,0.7,0.6,0.8c0.4,0.2,1.1,0.3,2.1,0.5
		c1.1,0.2,1.9,0.4,2.6,0.6s1.3,0.6,1.8,1.1c0.5,0.5,0.7,1.3,0.7,2.2c0,0.8-0.2,1.5-0.7,2.1c-0.5,0.6-1.2,1.1-2.1,1.5
		c-0.9,0.3-2,0.5-3.3,0.5C621.9,246.9,620.9,246.8,619.8,246.5z"/>
	<path d="M633.9,246.1c-1.1-0.6-1.9-1.4-2.5-2.4c-0.6-1-0.9-2.2-0.9-3.4c0-1.3,0.3-2.4,0.9-3.4c0.6-1,1.5-1.8,2.5-2.4
		s2.3-0.9,3.7-0.9s2.6,0.3,3.6,0.9c1.1,0.6,1.9,1.4,2.5,2.4c0.6,1,0.9,2.2,0.9,3.4c0,1.3-0.3,2.4-0.9,3.4c-0.6,1-1.4,1.8-2.5,2.4
		c-1.1,0.6-2.3,0.9-3.6,0.9S635,246.6,633.9,246.1z M639.9,242.9c0.6-0.6,0.9-1.5,0.9-2.6c0-1.1-0.3-2-0.9-2.6c-0.6-0.6-1.4-1-2.4-1
		s-1.8,0.3-2.4,1s-0.9,1.5-0.9,2.6c0,1.1,0.3,2,0.9,2.6s1.4,1,2.4,1S639.3,243.5,639.9,242.9z"/>
	<path d="M647.1,228.9h3.7v17.8h-3.7V228.9z"/>
	<path d="M667.3,233.8v12.9h-3.6v-1.5c-0.5,0.6-1.1,1-1.8,1.3c-0.7,0.3-1.4,0.4-2.2,0.4c-1.7,0-3-0.5-4-1.5c-1-1-1.5-2.4-1.5-4.3
		v-7.3h3.7v6.7c0,2.1,0.9,3.1,2.6,3.1c0.9,0,1.6-0.3,2.2-0.9s0.8-1.5,0.8-2.6v-6.4H667.3z"/>
	<path d="M679.2,246.1c-0.4,0.3-0.8,0.5-1.4,0.6s-1.1,0.2-1.7,0.2c-1.5,0-2.7-0.4-3.6-1.2c-0.8-0.8-1.3-1.9-1.3-3.5V237h-2v-2.9h2
		V231h3.7v3.1h3.2v2.9H675v5.3c0,0.5,0.1,1,0.4,1.3c0.3,0.3,0.7,0.4,1.2,0.4c0.6,0,1.1-0.2,1.5-0.5L679.2,246.1z"/>
	<path d="M681.5,231.4c-0.4-0.4-0.6-0.9-0.6-1.5s0.2-1.1,0.6-1.5c0.4-0.4,1-0.6,1.7-0.6s1.2,0.2,1.7,0.6c0.4,0.4,0.6,0.9,0.6,1.4
		c0,0.6-0.2,1.1-0.6,1.5c-0.4,0.4-1,0.6-1.7,0.6S681.9,231.8,681.5,231.4z M681.3,233.8h3.7v12.9h-3.7V233.8z"/>
	<path d="M691,246.1c-1.1-0.6-1.9-1.4-2.5-2.4c-0.6-1-0.9-2.2-0.9-3.4c0-1.3,0.3-2.4,0.9-3.4c0.6-1,1.5-1.8,2.5-2.4s2.3-0.9,3.7-0.9
		c1.4,0,2.6,0.3,3.6,0.9s1.9,1.4,2.5,2.4c0.6,1,0.9,2.2,0.9,3.4c0,1.3-0.3,2.4-0.9,3.4c-0.6,1-1.4,1.8-2.5,2.4
		c-1.1,0.6-2.3,0.9-3.6,0.9C693.3,246.9,692.1,246.6,691,246.1z M697,242.9c0.6-0.6,0.9-1.5,0.9-2.6c0-1.1-0.3-2-0.9-2.6
		c-0.6-0.6-1.4-1-2.4-1s-1.8,0.3-2.4,1s-0.9,1.5-0.9,2.6c0,1.1,0.3,2,0.9,2.6s1.4,1,2.4,1S696.4,243.5,697,242.9z"/>
	<path d="M715.9,235.1c1,1,1.5,2.4,1.5,4.3v7.4h-3.7v-6.8c0-1-0.2-1.8-0.7-2.3c-0.4-0.5-1.1-0.8-1.9-0.8c-0.9,0-1.7,0.3-2.3,0.9
		s-0.8,1.5-0.8,2.6v6.4h-3.7v-12.9h3.6v1.5c0.5-0.5,1.1-1,1.8-1.3c0.7-0.3,1.5-0.4,2.4-0.4C713.7,233.6,714.9,234.1,715.9,235.1z"/>
</g>
<g>
	<path class="st2" d="M294.2,525h5.8c1.4,0,2.7,0.3,3.8,0.8c1.1,0.6,2,1.3,2.6,2.3c0.6,1,0.9,2.2,0.9,3.5s-0.3,2.5-0.9,3.5
		c-0.6,1-1.5,1.8-2.6,2.3s-2.4,0.8-3.8,0.8h-5.8V525z M299.9,536.2c1,0,1.8-0.2,2.6-0.6c0.7-0.4,1.3-0.9,1.7-1.6s0.6-1.5,0.6-2.4
		s-0.2-1.7-0.6-2.4c-0.4-0.7-1-1.2-1.7-1.6c-0.7-0.4-1.6-0.6-2.6-0.6h-3.2v9.1H299.9z"/>
	<path class="st2" d="M321.3,532.6c0.4,0.6,0.6,1.3,0.6,2.1c0,1.2-0.4,2-1.3,2.7s-2.2,0.9-3.9,0.9h-6.6V525h6.2
		c1.6,0,2.8,0.3,3.6,0.9s1.3,1.5,1.3,2.5c0,0.7-0.2,1.2-0.5,1.7c-0.3,0.5-0.7,0.9-1.3,1.2C320.3,531.7,320.9,532.1,321.3,532.6z
		 M312.6,527v3.7h3.5c0.9,0,1.5-0.2,2-0.5s0.7-0.8,0.7-1.4c0-0.6-0.2-1.1-0.7-1.4c-0.5-0.3-1.1-0.5-2-0.5H312.6z M319.5,534.5
		c0-1.3-1-1.9-2.9-1.9h-4v3.8h4C318.5,536.4,319.5,535.8,319.5,534.5z"/>
</g>
<g>
	<path class="st2" d="M889.5,197.8l-4.4,13.3h-2.6l-3.3-9.8l-3.3,9.8h-2.6l-4.4-13.3h2.6l3.3,10.1l3.4-10.1h2.3l3.4,10.2l3.4-10.2
		H889.5z"/>
	<path class="st2" d="M900.3,206.7h-8c0.1,0.7,0.5,1.3,1.1,1.8s1.3,0.7,2.2,0.7c1.1,0,2-0.4,2.8-1.1l1.3,1.5c-0.5,0.5-1,1-1.7,1.2
		c-0.7,0.3-1.5,0.4-2.4,0.4c-1.1,0-2.1-0.2-2.9-0.7c-0.8-0.4-1.5-1.1-2-1.9c-0.5-0.8-0.7-1.7-0.7-2.7c0-1,0.2-1.9,0.7-2.7
		c0.5-0.8,1.1-1.4,1.9-1.9c0.8-0.4,1.7-0.7,2.7-0.7c1,0,1.9,0.2,2.7,0.7c0.8,0.4,1.4,1.1,1.8,1.8c0.4,0.8,0.7,1.7,0.7,2.7
		C900.3,206.2,900.3,206.4,900.3,206.7z M893.2,203.4c-0.5,0.4-0.8,1-1,1.8h5.8c-0.1-0.7-0.4-1.3-0.9-1.8c-0.5-0.5-1.2-0.7-1.9-0.7
		C894.4,202.7,893.8,202.9,893.2,203.4z"/>
	<path class="st2" d="M911,201.4c0.8,0.4,1.4,1,1.8,1.8c0.4,0.8,0.7,1.7,0.7,2.7c0,1-0.2,1.9-0.7,2.7c-0.4,0.8-1.1,1.4-1.8,1.8
		c-0.8,0.4-1.7,0.6-2.7,0.6c-0.7,0-1.3-0.1-1.9-0.4c-0.6-0.2-1.1-0.6-1.5-1.1v1.3h-2.3V197h2.4v5.2c0.4-0.4,0.9-0.8,1.4-1
		s1.2-0.3,1.8-0.3C909.4,200.8,910.3,201,911,201.4z M910.3,208.3c0.6-0.6,0.8-1.3,0.8-2.3c0-0.9-0.3-1.7-0.8-2.3
		c-0.6-0.6-1.3-0.9-2.2-0.9c-0.6,0-1.1,0.1-1.5,0.4s-0.8,0.6-1.1,1.1c-0.3,0.5-0.4,1-0.4,1.7c0,0.6,0.1,1.2,0.4,1.7
		c0.3,0.5,0.6,0.9,1.1,1.1c0.5,0.3,1,0.4,1.5,0.4C909,209.1,909.7,208.9,910.3,208.3z"/>
</g>
<g>
	<path class="st2" d="M288,230.6l0-8.8l-4.4,7.3h-1.1l-4.4-7.2v8.7h-2.4v-13.3h2l5.3,8.8l5.2-8.8h2l0,13.3H288z"/>
	<path class="st2" d="M295.7,230.1c-0.8-0.4-1.5-1.1-1.9-1.9s-0.7-1.7-0.7-2.7c0-1,0.2-1.9,0.7-2.7c0.5-0.8,1.1-1.4,1.9-1.8
		c0.8-0.4,1.7-0.7,2.8-0.7c1,0,2,0.2,2.8,0.7c0.8,0.4,1.5,1.1,1.9,1.8c0.5,0.8,0.7,1.7,0.7,2.7c0,1-0.2,1.9-0.7,2.7
		s-1.1,1.4-1.9,1.9c-0.8,0.4-1.8,0.7-2.8,0.7C297.5,230.7,296.5,230.5,295.7,230.1z M300.7,227.8c0.6-0.6,0.9-1.3,0.9-2.3
		c0-0.9-0.3-1.7-0.9-2.3c-0.6-0.6-1.3-0.9-2.2-0.9s-1.6,0.3-2.2,0.9c-0.6,0.6-0.8,1.3-0.8,2.3c0,1,0.3,1.7,0.8,2.3s1.3,0.9,2.2,0.9
		S300.1,228.4,300.7,227.8z"/>
	<path class="st2" d="M314.6,221c0.8,0.4,1.4,1,1.8,1.8c0.4,0.8,0.7,1.7,0.7,2.7c0,1-0.2,1.9-0.7,2.7c-0.4,0.8-1.1,1.4-1.8,1.8
		c-0.8,0.4-1.7,0.6-2.7,0.6c-0.7,0-1.3-0.1-1.9-0.4c-0.6-0.2-1.1-0.6-1.5-1.1v1.3h-2.3v-14.1h2.4v5.2c0.4-0.4,0.9-0.8,1.4-1
		c0.6-0.2,1.2-0.3,1.8-0.3C313,220.3,313.9,220.6,314.6,221z M313.9,227.8c0.6-0.6,0.8-1.3,0.8-2.3c0-0.9-0.3-1.7-0.8-2.3
		c-0.6-0.6-1.3-0.9-2.2-0.9c-0.6,0-1.1,0.1-1.5,0.4s-0.8,0.6-1.1,1.1c-0.3,0.5-0.4,1-0.4,1.7c0,0.6,0.1,1.2,0.4,1.7s0.6,0.9,1.1,1.1
		c0.5,0.3,1,0.4,1.5,0.4C312.6,228.7,313.3,228.4,313.9,227.8z"/>
	<path class="st2" d="M319.7,218.4c-0.3-0.3-0.4-0.6-0.4-1c0-0.4,0.1-0.7,0.4-1s0.7-0.4,1.1-0.4s0.8,0.1,1.1,0.4s0.4,0.6,0.4,1
		c0,0.4-0.1,0.8-0.4,1.1c-0.3,0.3-0.6,0.4-1.1,0.4C320.4,218.8,320,218.6,319.7,218.4z M319.6,220.5h2.4v10.1h-2.4V220.5z"/>
	<path class="st2" d="M325.3,216.5h2.4v14.1h-2.4V216.5z"/>
	<path class="st2" d="M340.5,226.3h-8c0.1,0.7,0.5,1.3,1.1,1.8s1.3,0.7,2.2,0.7c1.1,0,2-0.4,2.8-1.1l1.3,1.5c-0.5,0.5-1,1-1.7,1.2
		c-0.7,0.3-1.5,0.4-2.4,0.4c-1.1,0-2.1-0.2-2.9-0.7c-0.8-0.4-1.5-1.1-2-1.9s-0.7-1.7-0.7-2.7c0-1,0.2-1.9,0.7-2.7
		c0.4-0.8,1.1-1.4,1.9-1.9c0.8-0.4,1.7-0.7,2.7-0.7c1,0,1.9,0.2,2.7,0.7c0.8,0.4,1.4,1.1,1.8,1.8c0.4,0.8,0.7,1.7,0.7,2.7
		C340.5,225.7,340.5,226,340.5,226.3z M333.4,222.9c-0.5,0.4-0.8,1-1,1.8h5.8c-0.1-0.7-0.4-1.3-0.9-1.8c-0.5-0.5-1.2-0.7-1.9-0.7
		C334.6,222.2,334,222.5,333.4,222.9z"/>
</g>
<g>
	<path class="st2" d="M890.1,554.8h-6.6l-1.3,3.1h-2.5l6-13.3h2.4l6,13.3h-2.6L890.1,554.8z M889.3,552.9l-2.5-5.8l-2.5,5.8H889.3z"
		/>
	<path class="st2" d="M904.4,545.1c0.9,0.4,1.5,0.9,2,1.6c0.5,0.7,0.7,1.6,0.7,2.5c0,1-0.2,1.8-0.7,2.5c-0.5,0.7-1.1,1.3-2,1.6
		c-0.9,0.4-1.9,0.6-3,0.6h-3v3.8h-2.5v-13.3h5.5C902.5,544.6,903.5,544.8,904.4,545.1z M903.7,551.3c0.6-0.5,0.8-1.1,0.8-2
		s-0.3-1.5-0.8-2c-0.6-0.5-1.4-0.7-2.5-0.7h-2.9v5.3h2.9C902.3,551.9,903.1,551.7,903.7,551.3z"/>
	<path class="st2" d="M909.7,544.6h2.5v13.3h-2.5V544.6z"/>
</g>
</svg>
