<svg width="46" height="46" viewBox="0 0 46 46" fill="none" xmlns="http://www.w3.org/2000/svg">
<g clip-path="url(#clip0_8406_12045)">
<path d="M20.6172 15.8191L9.62322 29.2602H21.2244C21.2244 32.5195 18.5748 35.1637 15.3088 35.1637H0.625601V29.3062L12.8064 15.6171H5.56601C2.4932 15.6171 0 13.129 0 10.0625H20.6172V15.8191Z" fill="#0FC57A"/>
<path d="M30.2315 10.0796H45.9911C45.9911 13.4249 43.4979 16.1391 40.4251 16.1391H24.6562C24.6562 12.7939 27.1495 10.0796 30.2315 10.0796Z" fill="#0FC57A"/>
<path fill-rule="evenodd" clip-rule="evenodd" d="M30.2315 19.5821H45.9911C45.9911 22.9274 43.4979 25.6416 40.4251 25.6416H24.6562C24.6562 22.2964 27.1495 19.5821 30.2315 19.5821Z" fill="#0FC57A"/>
<path fill-rule="evenodd" clip-rule="evenodd" d="M30.2339 29.1304H46.0003C46.0003 32.4756 43.506 35.1899 40.4319 35.1899H24.6562C24.6562 31.8446 27.1505 29.1304 30.2339 29.1304Z" fill="#0FC57A"/>
</g>
<defs>
<clipPath id="clip0_8406_12045">
<rect width="46" height="46" fill="white"/>
</clipPath>
</defs>
</svg>
