<svg width="135" height="24" viewBox="0 0 135 24" fill="none" xmlns="http://www.w3.org/2000/svg">
<path d="M10.3742 8.108L4.94369 15.1124H10.9885C10.9885 15.928 10.6805 16.7103 10.1322 17.2871C9.58382 17.864 8.84013 18.1881 8.06456 18.1883H0.495952V15.1379L6.51657 8.00548H2.78132C2.05125 8.00531 1.35114 7.70016 0.834963 7.15712C0.318784 6.61409 0.0288085 5.87771 0.0288086 5.10986H10.3742V8.108Z" fill="black"/>
<path d="M24.9699 12.6572H16.7621C17.0731 14.4665 18.2281 15.3711 20.2271 15.3711C20.8302 15.3715 21.4302 15.2801 22.0084 15.0996C22.6392 14.8994 23.2586 14.6613 23.8635 14.3865V17.695C22.5201 18.2808 21.0131 18.5737 19.3425 18.5737C18.0807 18.5737 16.9747 18.3022 16.0247 17.7593C15.0838 17.227 14.3143 16.4132 13.8133 15.4208C13.289 14.4037 13.0269 13.2062 13.0269 11.8281C13.0269 9.5536 13.5635 7.79184 14.6367 6.5429C15.7099 5.29397 17.2375 4.66837 19.2195 4.66614C23.1019 4.66927 25.0188 7.33297 24.9699 12.6572ZM16.7379 10.202H21.3328C21.2181 9.27162 20.9844 8.60823 20.6318 8.21188C20.2791 7.81553 19.7593 7.61712 19.0723 7.61671C17.7616 7.61671 16.9835 8.47844 16.7379 10.202Z" fill="black"/>
<path d="M38.9293 6.50587C39.8958 7.67751 40.3791 9.37552 40.3791 11.6C40.3625 16.2508 38.1836 18.576 33.8423 18.5755C30.0414 18.5755 28.1412 17.4383 28.1416 15.1638V0.276978H31.729V5.57551C32.1997 5.28852 32.7096 5.0792 33.2407 4.95483C33.7354 4.82666 34.2423 4.75741 34.7517 4.74839C36.5706 4.74839 37.9631 5.33421 38.9293 6.50587ZM36.7153 11.8299C36.7153 9.15945 35.7651 7.82407 33.8646 7.8236C33.4938 7.82765 33.1246 7.87551 32.764 7.96641C32.4035 8.0487 32.056 8.18406 31.7316 8.36857V14.1577C31.7316 14.9679 32.4196 15.3729 33.7958 15.3729C35.7421 15.3716 36.7153 14.1906 36.7153 11.8299Z" fill="black"/>
<path d="M43.5225 6.47709C43.7676 6.25364 44.1976 6.00385 44.8124 5.72771C45.4813 5.43316 46.1716 5.19557 46.8766 5.01721C47.5959 4.82573 48.3346 4.7267 49.0766 4.72229C50.4361 4.72229 51.3781 4.93767 51.9024 5.36843V8.18361C51.2468 8.02901 50.3049 7.95171 49.0766 7.95171C48.4432 7.94344 47.8103 7.98824 47.1838 8.08572V18.1882H43.5225V6.47709Z" fill="black"/>
<path d="M56.2165 17.2318C55.1756 16.3381 54.6554 14.994 54.6558 13.1995V5.10986H58.3198V12.8898C58.3198 13.7169 58.4956 14.3329 58.8482 14.7377C59.2003 15.1426 59.7613 15.345 60.5308 15.345C61.3009 15.345 61.8619 15.1426 62.214 14.7377C62.5666 14.3329 62.7424 13.7169 62.7424 12.8898V5.10986H66.1843V13.1995C66.1843 15.0092 65.6885 16.3575 64.6971 17.2445C63.7057 18.1316 62.3081 18.5752 60.5043 18.5757C58.6865 18.5757 57.2568 18.1277 56.2165 17.2318Z" fill="black"/>
<path d="M72.9604 5.21383C74.2706 4.90327 75.4423 4.74821 76.4743 4.74866C78.2274 4.74866 79.5461 5.11038 80.4311 5.83384C81.316 6.55731 81.7582 7.74613 81.7577 9.40039V18.1884H78.0967V10.1759C78.0967 8.67713 77.2934 7.92777 75.6879 7.92777C75.3162 7.92906 74.9455 7.97222 74.5822 8.05644C74.2757 8.11773 73.9783 8.22213 73.6978 8.36681V18.1884H70.0356V6.2219C70.675 5.85998 71.6501 5.52394 72.9604 5.21383Z" fill="black"/>
<path d="M88.5399 5.21383C89.8502 4.90327 91.0218 4.74821 92.0544 4.74866C93.8069 4.74866 95.1256 5.11038 96.0106 5.83384C96.8955 6.55731 97.3377 7.74613 97.3372 9.40039V18.1884H93.6762V10.1759C93.6762 8.67713 92.8735 7.92777 91.2674 7.92777C90.8957 7.92906 90.525 7.97222 90.1622 8.05644C89.8552 8.11773 89.5578 8.22213 89.2773 8.36681V18.1884H85.6157V6.2219C86.2551 5.85998 87.2296 5.52394 88.5399 5.21383Z" fill="black"/>
<path d="M115.62 6.47706C115.866 6.25366 116.297 6.00387 116.911 5.7277C117.58 5.43306 118.27 5.19546 118.975 5.01721C119.694 4.82483 120.432 4.72489 121.174 4.7196C122.534 4.7196 123.476 4.93499 124 5.36575V8.18093C123.345 8.02809 122.403 7.95167 121.174 7.95167C120.541 7.94188 119.909 7.98516 119.282 8.08105V18.1881H115.62V6.47706Z" fill="black"/>
<path d="M103.775 5.62659H111.983C111.983 6.39435 111.693 7.13069 111.177 7.67361C110.66 8.21652 109.961 8.5215 109.23 8.5215H101.023C101.023 8.14134 101.094 7.76481 101.232 7.41356C101.371 7.06231 101.573 6.74314 101.829 6.47429C102.085 6.20544 102.388 5.99219 102.722 5.84677C103.056 5.70132 103.414 5.6265 103.775 5.62659Z" fill="white"/>
<path d="M103.775 10.4596H111.983C111.983 11.2274 111.693 11.9637 111.177 12.5066C110.66 13.0495 109.961 13.3545 109.23 13.3545H101.023C101.023 12.9744 101.094 12.5978 101.232 12.2466C101.371 11.8953 101.573 11.5762 101.829 11.3073C102.085 11.0385 102.388 10.8252 102.722 10.6798C103.056 10.5343 103.414 10.4595 103.775 10.4596Z" fill="white"/>
<path d="M103.775 15.2925H111.983C111.983 16.0603 111.693 16.7967 111.177 17.3397C110.66 17.8828 109.961 18.1879 109.23 18.1881H101.023C101.023 17.8079 101.094 17.4314 101.232 17.08C101.371 16.7287 101.573 16.4095 101.829 16.1406C102.085 15.8718 102.388 15.6585 102.722 15.5129C103.056 15.3674 103.414 15.2925 103.775 15.2925Z" fill="white"/>
</svg>
